<?xml version="1.0" encoding="utf-8"?>
<!-- Generator: Adobe Illustrator 24.2.0, SVG Export Plug-In . SVG Version: 6.00 Build 0)  -->
<svg version="1.1" id="Capa_1" xmlns="http://www.w3.org/2000/svg" xmlns:xlink="http://www.w3.org/1999/xlink" x="0px" y="0px"
	 viewBox="0 0 500 500" style="enable-background:new 0 0 500 500;" xml:space="preserve">
<style type="text/css">
	.st0{fill:#5363F6;}
	.st1{opacity:0.3;fill:#FFFFFF;enable-background:new    ;}
	.st2{opacity:0.1;enable-background:new    ;}
	.st3{fill:#E6E6E6;}
	.st4{fill:#455A64;}
	.st5{opacity:0.2;fill:#FFFFFF;enable-background:new    ;}
	.st6{fill:#0E1F47;}
	.st7{opacity:0.6;fill:#FFFFFF;enable-background:new    ;}
	.st8{fill:#F28F8F;}
	.st9{opacity:0.3;enable-background:new    ;}
	.st10{fill:#37474F;}
	.st11{opacity:0.2;}
	.st12{opacity:0.2;enable-background:new    ;}
	.st13{opacity:0.3;fill:#5363F6;enable-background:new    ;}
	.st14{opacity:0.1;fill:#FFFFFF;enable-background:new    ;}
	.st15{fill:#263238;}
	.st16{fill:#F0F0F0;}
	.st17{fill:#FFFFFF;}
	.st18{opacity:0.4;enable-background:new    ;}
	.st19{opacity:0.5;enable-background:new    ;}
	.st20{opacity:0.4;fill:#FFFFFF;enable-background:new    ;}
	.st21{fill:#FFA8A7;}
	.st22{fill:#E0E0E0;}
	.st23{fill:#BA68C8;}
	.st24{fill:#FF9192;}
</style>
<g id="Floor">
	<g>
		<path class="st0" d="M410.2,266.1c-89.1-49.8-233-49.8-321.5,0c-88.5,49.8-88,130.6,1,180.4c89.1,49.8,233,49.8,321.5,0
			S499.3,316,410.2,266.1z"/>
		<path class="st1" d="M410.2,266.1c-89.1-49.8-233-49.8-321.5,0c-88.5,49.8-88,130.6,1,180.4c89.1,49.8,233,49.8,321.5,0
			S499.3,316,410.2,266.1z"/>
	</g>
</g>
<g id="Shadows">
	<path class="st2" d="M363.2,388.1c-24.8-14.3-64.8-14.3-89.4,0c-24.6,14.3-24.5,37.5,0.3,51.8c24.8,14.3,64.8,14.3,89.4,0
		S388,402.4,363.2,388.1z"/>
	<path class="st2" d="M228.2,379.3c-24.8-14.3-64.8-14.3-89.4,0c-24.6,14.3-24.5,37.5,0.3,51.8c24.8,14.3,64.8,14.3,89.4,0
		S252.9,393.6,228.2,379.3z"/>
</g>
<g id="Clouds">
	<g>
		<g>
			<path class="st3" d="M92.7,50.5c4.5-2.6,8.3-1.3,9.4,2.7c1.2-2.3,2.9-4.3,4.8-5.4c3.5-2,6.3-0.4,6.4,3.6l0,1.8l4.7-2.7
				c2.4-1.4,4.4-0.3,4.4,2.5c0,2.8-2,6.3-4.4,7.7l-39.8,23c-2.4,1.4-4.4,0.3-4.5-2.5s2-6.3,4.4-7.7l4.7-2.7l0-3.4
				C82.9,61.2,87.3,53.6,92.7,50.5z"/>
		</g>
		<g>
			<path class="st3" d="M131.7,65.5c3.2-1.8,5.9-0.9,6.8,1.9c0.8-1.6,2.1-3.1,3.5-3.9c2.5-1.5,4.6-0.3,4.6,2.6v1.3l3.4-1.9
				c1.8-1,3.2-0.2,3.2,1.8c0,2-1.4,4.5-3.2,5.5l-28.6,16.5c-1.8,1-3.2,0.2-3.2-1.8c0-2,1.4-4.5,3.2-5.5l3.4-1.9l0-2.4
				C124.7,73.2,127.8,67.8,131.7,65.5z"/>
		</g>
	</g>
</g>
<g id="Trees">
	<g>
		<g>
			<path class="st4" d="M261.1,232.3c-0.3-1.8-0.6-3.7-1.6-5.3c-1-1.6-2.9-2.7-4.7-2.2c-1.5,0.4-2.6,1.9-3,3.4s-0.2,3.2,0,4.8
				c-0.5-1.7-1.8-3.1-3.4-4s-3.7-0.9-5.1,0.2c-1.6,1.2-2,3.6-1.5,5.5c0.5,2,1.7,3.6,2.9,5.3c-1.8-0.6-3.9-0.9-5.5,0
				c-1.4,0.9-2,2.7-1.7,4.3c0.3,1.6,1.4,3,2.7,4c1.3,1,2.9,1.6,4.4,2.3c-1-0.4-2.6,0.1-3.4,0.8c-0.8,0.7-1.1,2-0.8,3
				c0.4,1.2,1.6,2,2.7,2.5c2.8,1.2,5.9,1.5,8.8,0.7c2.9-0.8,5.5-2.6,7.3-5c2-2.8,2.9-6.2,3-9.6C262.5,239.6,261.7,235.7,261.1,232.3
				z"/>
			<g>
				<path class="st0" d="M259.2,51.5c0.4,0,0.7,0.1,1.1,0.2c2.1,0.4,4.1,1.1,5.9,2c0.9,0.5,1.8,1,2.7,1.7c0.8,0.6,1.3,1.1,1.8,2
					c1.6,2.9,1.9,6.7,4.5,8.8c1.8,1.5,4.2,1.8,6.5,2.2c2.3,0.5,4.7,1.4,5.7,3.5c1.3,2.7-0.4,5.8-2.1,8.2c-1.7,2.4-3.7,5.2-3,8.1
					c0.6,2.3,2.8,3.9,5,4.8c2.2,0.9,4.6,1.4,6.7,2.6c2.4,1.4,3.8,3.9,3.3,6.7c-0.6,3.4-3.9,4.2-5.5,6.9c-1.2,2-0.5,4.9,1.5,6.2
					c1.2,0.8,2.7,1,4.1,1.3c1.4,0.3,2.9,0.9,3.7,2.1c0.8,1.2,0.2,3.3-1.2,3.5c-1.3,0.2-1.5,2.3-0.7,3.3s2.1,1.5,3.4,1.7
					c1.3,0.2,2.6,0.2,3.9,0.6c2.3,0.7,4.1,2.6,4.7,4.9c0.6,2.3-0.1,4.9-1.8,6.5c-1,1-2.3,1.6-3.5,2.3c-1.2,0.6-2.5,1.3-3.5,2.4
					c-1,1-1.6,2.4-1.3,3.8s1.6,2.6,3,2.3c2.9,0.3,4.6,0.9,7.2,2.3c2.6,1.4,4.7,3.8,5.3,6.7s-0.7,6.2-3.3,7.5
					c-1.6,0.8-3.6,0.8-5.4,0.8c-1.8-0.1-3.8-0.1-5.4,0.6c-1.7,0.8-3,2.6-2.6,4.4c0.3,1.4,1.6,2.4,2.8,3.3c1.1,0.9,2.3,2.1,2.2,3.6
					c-0.1,1.5-1.5,2.6-2.9,3.3c-5.1,2.6-11.4,2.7-16.7,0.4c-1.3-0.6-2.9-1.5-4.4-0.9c-1.3,0.6-1.1,2.3-1.8,3.4
					c-1,1.7-3.1,2.5-4.9,3.1c-2.3,0.8-5,0.5-7.2-0.5c-2.2-1-4-2.8-5.7-4.6c-1.7-1.7-3.3-3.4-5-5.1c-3.5-3.6-8.5,0.2-12.4,3.4
					c-1.2,0.9-2.2,2-3.3,3c-1.2,0.9-2.5,1.7-4,1.8c-1.5,0.1-3.1-0.7-3.6-2c-0.6-1.3-0.1-3-1-4.2c-0.8-1-2.3-1.1-3.6-0.9
					c-2.2,0.3-4.2,1.1-6.4,1.3c-2.2,0.1-4.6-0.5-5.7-2.4c-0.9-1.6-0.6-3.6-0.6-5.5c0-1.9-0.5-4.1-2.2-4.8c-1.9-0.8-2.7-1.4-4.2-2.8
					c-1.5-1.4-2.5-3.4-2.2-5.4c0.3-1.9,1.7-3.5,3.4-4.5c1.6-1,3.5-1.6,5.3-2.3s3.5-1.8,4.6-3.4c1.2-1.8,1.4-4.3,0.3-6.3
					s-3.2-3.3-5.4-3.3c-1.6,0-2.4-0.3-3.9-0.9c-1.5-0.6-2.7-2.1-2.5-3.6c0.1-1.1,0.9-1.9,1.7-2.6c0.9-0.6,1.8-1.1,2.7-1.7
					c1.8-1.3,3.1-3.1,4.6-4.8c1.4-1.7,3.2-3.2,5.4-3.6c0.7-0.1,1.4-0.1,2.1-0.3c0.7-0.1,1.4-0.5,1.7-1.1c1-1.7-0.8-3.2-0.6-4.9
					c0.1-1.2,0.8-2.3,1.8-3c0.7-0.5,1.6-0.8,2.4-1.2c0.8-0.4,1.6-1,1.8-1.9c0.2-0.9-0.2-1.9-0.1-2.8c0.1-1,0.8-1.8,1.2-2.8
					c0.6-1.6,0-3.4-1-4.8c-1.4-1.9-3.6-2.8-4.4-5.3c-0.5-1.8,0-3.9,1.4-5.2c3.4-3.3,9,0.3,12.5-3c2.5-2.4,1.6-6.5,0.1-9.2
					c-0.7-1.3-1.5-2.5-2-3.8c-0.6-1.5-0.7-3.6,0.4-4.9c1.2-1.4,3.2-1.6,5-1.8c1.8-0.2,3.8-0.7,4.8-2.3c0.7-1.2,0.6-2.8,0.3-4.2
					c-0.2-1.2-0.6-2.4-0.4-3.6c0.2-1.1,0.7-2.1,1.5-3c1.1-1.1,2.6-1.8,4.1-2.1C256.8,51.4,258,51.4,259.2,51.5z"/>
				<path class="st5" d="M259.2,51.5c0.4,0,0.7,0.1,1.1,0.2c2.1,0.4,4.1,1.1,5.9,2c0.9,0.5,1.8,1,2.7,1.7c0.8,0.6,1.3,1.1,1.8,2
					c1.6,2.9,1.9,6.7,4.5,8.8c1.8,1.5,4.2,1.8,6.5,2.2c2.3,0.5,4.7,1.4,5.7,3.5c1.3,2.7-0.4,5.8-2.1,8.2c-1.7,2.4-3.7,5.2-3,8.1
					c0.6,2.3,2.8,3.9,5,4.8c2.2,0.9,4.6,1.4,6.7,2.6c2.4,1.4,3.8,3.9,3.3,6.7c-0.6,3.4-3.9,4.2-5.5,6.9c-1.2,2-0.5,4.9,1.5,6.2
					c1.2,0.8,2.7,1,4.1,1.3c1.4,0.3,2.9,0.9,3.7,2.1c0.8,1.2,0.2,3.3-1.2,3.5c-1.3,0.2-1.5,2.3-0.7,3.3s2.1,1.5,3.4,1.7
					c1.3,0.2,2.6,0.2,3.9,0.6c2.3,0.7,4.1,2.6,4.7,4.9c0.6,2.3-0.1,4.9-1.8,6.5c-1,1-2.3,1.6-3.5,2.3c-1.2,0.6-2.5,1.3-3.5,2.4
					c-1,1-1.6,2.4-1.3,3.8s1.6,2.6,3,2.3c2.9,0.3,4.6,0.9,7.2,2.3c2.6,1.4,4.7,3.8,5.3,6.7s-0.7,6.2-3.3,7.5
					c-1.6,0.8-3.6,0.8-5.4,0.8c-1.8-0.1-3.8-0.1-5.4,0.6c-1.7,0.8-3,2.6-2.6,4.4c0.3,1.4,1.6,2.4,2.8,3.3c1.1,0.9,2.3,2.1,2.2,3.6
					c-0.1,1.5-1.5,2.6-2.9,3.3c-5.1,2.6-11.4,2.7-16.7,0.4c-1.3-0.6-2.9-1.5-4.4-0.9c-1.3,0.6-1.1,2.3-1.8,3.4
					c-1,1.7-3.1,2.5-4.9,3.1c-2.3,0.8-5,0.5-7.2-0.5c-2.2-1-4-2.8-5.7-4.6c-1.7-1.7-3.3-3.4-5-5.1c-3.5-3.6-8.5,0.2-12.4,3.4
					c-1.2,0.9-2.2,2-3.3,3c-1.2,0.9-2.5,1.7-4,1.8c-1.5,0.1-3.1-0.7-3.6-2c-0.6-1.3-0.1-3-1-4.2c-0.8-1-2.3-1.1-3.6-0.9
					c-2.2,0.3-4.2,1.1-6.4,1.3c-2.2,0.1-4.6-0.5-5.7-2.4c-0.9-1.6-0.6-3.6-0.6-5.5c0-1.9-0.5-4.1-2.2-4.8c-1.9-0.8-2.7-1.4-4.2-2.8
					c-1.5-1.4-2.5-3.4-2.2-5.4c0.3-1.9,1.7-3.5,3.4-4.5c1.6-1,3.5-1.6,5.3-2.3s3.5-1.8,4.6-3.4c1.2-1.8,1.4-4.3,0.3-6.3
					s-3.2-3.3-5.4-3.3c-1.6,0-2.4-0.3-3.9-0.9c-1.5-0.6-2.7-2.1-2.5-3.6c0.1-1.1,0.9-1.9,1.7-2.6c0.9-0.6,1.8-1.1,2.7-1.7
					c1.8-1.3,3.1-3.1,4.6-4.8c1.4-1.7,3.2-3.2,5.4-3.6c0.7-0.1,1.4-0.1,2.1-0.3c0.7-0.1,1.4-0.5,1.7-1.1c1-1.7-0.8-3.2-0.6-4.9
					c0.1-1.2,0.8-2.3,1.8-3c0.7-0.5,1.6-0.8,2.4-1.2c0.8-0.4,1.6-1,1.8-1.9c0.2-0.9-0.2-1.9-0.1-2.8c0.1-1,0.8-1.8,1.2-2.8
					c0.6-1.6,0-3.4-1-4.8c-1.4-1.9-3.6-2.8-4.4-5.3c-0.5-1.8,0-3.9,1.4-5.2c3.4-3.3,9,0.3,12.5-3c2.5-2.4,1.6-6.5,0.1-9.2
					c-0.7-1.3-1.5-2.5-2-3.8c-0.6-1.5-0.7-3.6,0.4-4.9c1.2-1.4,3.2-1.6,5-1.8c1.8-0.2,3.8-0.7,4.8-2.3c0.7-1.2,0.6-2.8,0.3-4.2
					c-0.2-1.2-0.6-2.4-0.4-3.6c0.2-1.1,0.7-2.1,1.5-3c1.1-1.1,2.6-1.8,4.1-2.1C256.8,51.4,258,51.4,259.2,51.5z"/>
				<path class="st2" d="M207,159.6c0.3-1.9,1.7-3.5,3.4-4.5c1.6-1,3.5-1.6,5.3-2.3s3.5-1.8,4.6-3.4c1.2-1.8,1.4-4.3,0.3-6.3
					s-3.2-3.3-5.4-3.3c-1.6,0-2.4-0.3-3.9-0.9c-1.5-0.6-2.7-2.1-2.5-3.6c0.1-1.1,0.9-1.9,1.7-2.6c0.9-0.6,1.8-1.1,2.7-1.7
					c1.8-1.3,3.1-3.1,4.6-4.8c1.4-1.7,3.2-3.2,5.4-3.6c0.7-0.1,1.4-0.1,2.1-0.3c0.7-0.1,1.4-0.5,1.7-1.1c1-1.7-0.8-3.2-0.6-4.9
					c0.1-1.2,0.8-2.3,1.8-3c0.7-0.5,1.6-0.8,2.4-1.2c0.8-0.4,1.6-1,1.8-1.9c0.2-0.9-0.2-1.9-0.1-2.8c0.1-1,0.8-1.8,1.2-2.8
					c0.6-1.6,0-3.4-1-4.8c-1.4-1.9-3.6-2.8-4.4-5.3c-0.3-0.9-0.2-1.9,0-2.9c0.2,0.9,0.7,1.8,1.3,2.5c1.4,1.5,3.3,2.3,5.2,3.1
					c1.8,0.9,3.7,1.9,4.7,3.7c1.4,2.5,0.6,5.6-0.9,8c-1.4,2.4-3.5,4.5-4.8,6.9c-1.4,2.5-1.9,5.7-0.3,8c1.1,1.6,3.1,2.7,3.4,4.6
					c0.2,1.8-1.4,3.3-1.9,5.1c-0.7,2.4,0.7,4.9,0.9,7.4c0.2,1.7-0.3,3.4-1.2,4.9c-0.8,1.3-1.9,2-3.2,2.8c-2.4,1.6-4.9,3.6-5.7,6.5
					c-0.4,1.7-0.1,3.7,1.1,5c1,1.1,2.5,1.6,4,1.6c1.5,0,2.9-0.4,4.3-0.9c1.2-0.4,2.5-1,3.6-0.4c0.9,0.5,1.3,1.6,1.2,2.7
					c-0.1,1-0.6,2-1,2.9c-0.4,0.9-0.8,1.9-0.7,3c0.1,1.7,1.7,3.1,3.4,3.5c1.6,0.4,3.6,0,5.2-0.4c1.7-0.3,3-2.1,4.5-3
					c2.2-1.3,5-1.4,7.4-0.4c2.4,0.9,4.3,2.8,5.7,5c0.8,1.3,1.4,2.8,2.2,4.1s1.9,2.5,3.3,3.1c1.4,0.6,3.2,0.4,4.3-0.7
					c0.7-0.8,0.9-1.8,1-2.9s0-2.1,0-3.1s0.4-2.1,1.2-2.8c0.8-0.7,2-0.9,2.8-0.2c3.6,3.1,8.4,2.4,12.6,4.8c0.8,0.4,1.6,0.9,2.5,1.1
					c0.9,0.2,1.9,0,2.6-0.6c0.8-0.9,0.7-2.2,0.3-3.3s-1-2.1-1.2-3.3c-0.3-2.7,2.2-4.5,4.5-5.3c1.4-0.4,3-0.1,4.4,0
					c1.8,0.1,3.6,0.3,5.4,0.4c1.6,0.1,3.3,0.2,4.7-0.6c0.6-0.3,1-0.7,1.5-1.2c-0.6,1.4-1.5,2.6-2.9,3.3c-1.6,0.8-3.6,0.8-5.4,0.8
					c-1.8-0.1-3.8-0.1-5.4,0.6c-1.7,0.8-3,2.6-2.6,4.4c0.3,1.4,1.6,2.4,2.8,3.3c1.1,0.9,2.3,2.1,2.2,3.6c-0.1,1.5-1.5,2.6-2.9,3.3
					c-5.1,2.6-11.4,2.7-16.7,0.4c-1.3-0.6-2.9-1.5-4.4-0.9c-1.3,0.6-1.1,2.3-1.8,3.4c-1,1.7-3.1,2.5-4.9,3.1c-2.3,0.8-5,0.5-7.2-0.5
					c-2.2-1-4-2.8-5.7-4.6c-1.7-1.7-3.3-3.4-5-5.1c-3.5-3.6-8.5,0.2-12.4,3.4c-1.2,0.9-2.2,2-3.3,3c-1.2,0.9-2.5,1.7-4,1.8
					c-1.5,0.1-3.1-0.7-3.6-2c-0.6-1.3-0.1-3-1-4.2c-0.8-1-2.3-1.1-3.6-0.9c-2.2,0.3-4.2,1.1-6.4,1.3c-2.2,0.1-4.6-0.5-5.7-2.4
					c-0.9-1.6-0.6-3.6-0.6-5.5c0-1.9-0.5-4.1-2.2-4.8c-1.9-0.8-2.7-1.4-4.2-2.8C207.7,163.6,206.7,161.6,207,159.6z"/>
			</g>
			<path class="st6" d="M282.7,121.5c-7,11.4-15.8,26.8-19.4,33.3c-0.5-28.6-1.1-56.3-2.1-78.7c-1.2,23.4-1.9,52.4-2.1,81.9
				c-3.7-7.7-10.4-21.1-16-31.5c4,12.4,12.4,30.5,15.9,38.2c-0.5,73.5,1.2,82.1,1.2,82.1h4c0,0,0.3-11.6-0.8-86.1
				C266.5,155.2,277.4,135,282.7,121.5z"/>
			<path class="st0" d="M275.9,249.9L258.4,260c-2.4,0-5,0.6-7.2-0.1c-0.5-0.1-1-0.3-1.5-0.6c-0.4-0.3-0.8-0.8-0.8-1.3
				c-0.1-0.7,0.4-1.5,1-1.9c0.6-0.4,1.4-0.6,2.1-0.8c-1.2-0.4-2.5-1.3-3.4-2.1c-0.3-0.3-0.5-0.6-0.7-0.9c-0.1-0.4-0.2-0.8,0-1.1
				c0.3-0.5,0.9-0.6,1.5-0.7c1.6-0.1,3.3,0.1,4.8,0.8c-1.4-1.3-2.8-2.9-3.7-4.5c-0.4-0.8-0.8-1.7-0.3-2.4c0.3-0.5,0.8-0.8,1.3-0.9
				c0.5-0.1,1.1,0,1.6,0.2c1.6,0.4,3,1.3,4.2,2.4c-1.3-1.9-2.1-4.3-2.1-6.6c0-0.8,0.1-1.8,0.8-2.3c0.5-0.4,1.3-0.4,1.9-0.2
				s1.1,0.6,1.6,1.1c1.5,1.4,2.7,3.2,3.4,5.2c-0.5-2.5-0.2-5.1,0.8-7.4c0.2-0.5,0.5-1.1,0.9-1.5c0.4-0.4,1-0.7,1.6-0.7
				c0.8,0,1.4,0.6,1.8,1.3s0.4,1.4,0.5,2.2c0.1,1.8,0,3.6-0.4,5.4c0.4-1.8,1.4-3.5,2.6-4.9c0.5-0.6,1-1.1,1.7-1.4
				c0.7-0.3,1.5-0.3,2.1,0.1c0.8,0.5,1,1.6,1,2.6c0.1,1.8-0.2,3.6-0.9,5.3c0.6-1.1,1.5-2,2.5-2.8c0.6-0.4,1.3-0.8,2-0.6
				c0.7,0.2,1.1,0.9,1.1,1.6s-0.2,1.4-0.5,2C278.8,246.3,277.3,248.4,275.9,249.9z"/>
			<path class="st7" d="M275.9,249.9L258.4,260c-2.4,0-5,0.6-7.2-0.1c-0.5-0.1-1-0.3-1.5-0.6c-0.4-0.3-0.8-0.8-0.8-1.3
				c-0.1-0.7,0.4-1.5,1-1.9c0.6-0.4,1.4-0.6,2.1-0.8c-1.2-0.4-2.5-1.3-3.4-2.1c-0.3-0.3-0.5-0.6-0.7-0.9c-0.1-0.4-0.2-0.8,0-1.1
				c0.3-0.5,0.9-0.6,1.5-0.7c1.6-0.1,3.3,0.1,4.8,0.8c-1.4-1.3-2.8-2.9-3.7-4.5c-0.4-0.8-0.8-1.7-0.3-2.4c0.3-0.5,0.8-0.8,1.3-0.9
				c0.5-0.1,1.1,0,1.6,0.2c1.6,0.4,3,1.3,4.2,2.4c-1.3-1.9-2.1-4.3-2.1-6.6c0-0.8,0.1-1.8,0.8-2.3c0.5-0.4,1.3-0.4,1.9-0.2
				s1.1,0.6,1.6,1.1c1.5,1.4,2.7,3.2,3.4,5.2c-0.5-2.5-0.2-5.1,0.8-7.4c0.2-0.5,0.5-1.1,0.9-1.5c0.4-0.4,1-0.7,1.6-0.7
				c0.8,0,1.4,0.6,1.8,1.3s0.4,1.4,0.5,2.2c0.1,1.8,0,3.6-0.4,5.4c0.4-1.8,1.4-3.5,2.6-4.9c0.5-0.6,1-1.1,1.7-1.4
				c0.7-0.3,1.5-0.3,2.1,0.1c0.8,0.5,1,1.6,1,2.6c0.1,1.8-0.2,3.6-0.9,5.3c0.6-1.1,1.5-2,2.5-2.8c0.6-0.4,1.3-0.8,2-0.6
				c0.7,0.2,1.1,0.9,1.1,1.6s-0.2,1.4-0.5,2C278.8,246.3,277.3,248.4,275.9,249.9z"/>
		</g>
		<g>
			<path class="st8" d="M410.3,250.1h-20.4v38.6l0,0c0,1.5,1,3,3,4.2c4,2.3,10.5,2.3,14.4,0c2-1.1,3-2.7,3-4.2l0,0V250.1z"/>
			<path class="st9" d="M410.3,250.1h-20.4v38.6l0,0c0,1.5,1,3,3,4.2c4,2.3,10.5,2.3,14.4,0c2-1.1,3-2.7,3-4.2l0,0V250.1z"/>
			<g>
				<path class="st10" d="M394.6,293.2L394.6,293.2c0-5.5-4.8-6.2-6.1-6.2s-6.1,0.7-6.1,6.2c0,0.9,0.6,1.8,1.8,2.5
					c2.4,1.4,6.3,1.4,8.7,0C394,295,394.6,294.1,394.6,293.2L394.6,293.2L394.6,293.2z"/>
				<path class="st9" d="M392.1,288.2c0.4,0.6,0.8,1.3,1,2c0.3,1.1,0.2,2.4-0.4,3.4c-0.7,1-1.8,1.5-3,1.9c-1.8,0.5-3.6,0.6-5.5,0.4
					c2.4,1.3,6.2,1.3,8.6,0c1.2-0.7,1.8-1.6,1.8-2.5l0,0C394.6,290.6,393.5,289,392.1,288.2z"/>
			</g>
			<g>
				<path class="st4" d="M384.3,296.2L384.3,296.2c0-3.8-3.3-4.3-4.3-4.3s-4.3,0.5-4.3,4.3c0,0.6,0.4,1.3,1.3,1.8c1.7,1,4.4,1,6.1,0
					C383.9,297.5,384.3,296.9,384.3,296.2L384.3,296.2L384.3,296.2z"/>
				<path class="st9" d="M382.6,292.7c0.3,0.4,0.5,0.9,0.7,1.4c0.2,0.8,0.1,1.7-0.3,2.4c-0.5,0.7-1.3,1.1-2.1,1.3
					c-1.2,0.4-2.5,0.5-3.8,0.3c1.7,0.9,4.4,0.9,6,0c0.8-0.5,1.3-1.1,1.3-1.8l0,0C384.3,294.4,383.5,293.3,382.6,292.7z"/>
			</g>
			<g>
				<path class="st4" d="M417.5,291.7L417.5,291.7c0-4.2-3.6-4.7-4.7-4.7s-4.7,0.5-4.7,4.7c0,0.7,0.5,1.4,1.4,1.9c1.8,1,4.8,1,6.6,0
					C417,293.1,417.5,292.4,417.5,291.7L417.5,291.7L417.5,291.7z"/>
				<path class="st9" d="M415.6,287.9c0.3,0.5,0.6,1,0.7,1.5c0.2,0.9,0.2,1.8-0.3,2.6c-0.5,0.7-1.4,1.1-2.3,1.4
					c-1.3,0.4-2.8,0.5-4.1,0.3c1.8,1,4.7,1,6.5,0c0.9-0.5,1.4-1.2,1.4-1.9l0,0C417.5,289.7,416.6,288.6,415.6,287.9z"/>
			</g>
			<g>
				<path class="st0" d="M468.9,227.6l-61.4-129c-1.1-2.3-3-4.1-5.4-4.7c-3.9-1-7.8,0.9-9.4,4.3l-61.6,129.4
					c-1.8,3.7,0.4,8.1,4.4,8.9c3,0.7,5.2,3.4,5.2,6.4v1.5c0,7.1,6.3,12.3,13.1,11l0.9-0.2c5.1-1,10.3,1.8,12.3,6.6l1.6,3.8
					c2.4,5.9,9.4,8.5,15.1,5.5l9-4.7c4.6-2.4,10.1-2.4,14.7,0l9,4.7c5.7,2.9,12.7,0.4,15.1-5.5l1.6-3.8c2-4.9,7.1-7.6,12.3-6.6
					l0.9,0.2c6.8,1.3,13.1-3.9,13.1-10.8V243c0-3.1,2.1-5.8,5.2-6.4C468.6,235.6,470.7,231.3,468.9,227.6z"/>
				<path class="st9" d="M468.9,227.6l-61.4-129c-1.1-2.3-3-4.1-5.4-4.7c-3.9-1-7.8,0.9-9.4,4.3l-61.6,129.4
					c-1.8,3.7,0.4,8.1,4.4,8.9c3,0.7,5.2,3.4,5.2,6.4v1.5c0,7.1,6.3,12.3,13.1,11l0.9-0.2c5.1-1,10.3,1.8,12.3,6.6l1.6,3.8
					c2.4,5.9,9.4,8.5,15.1,5.5l9-4.7c4.6-2.4,10.1-2.4,14.7,0l9,4.7c5.7,2.9,12.7,0.4,15.1-5.5l1.6-3.8c2-4.9,7.1-7.6,12.3-6.6
					l0.9,0.2c6.8,1.3,13.1-3.9,13.1-10.8V243c0-3.1,2.1-5.8,5.2-6.4C468.6,235.6,470.7,231.3,468.9,227.6z"/>
				<g class="st11">
					<path d="M349.6,202.7v1.3c0,6.1,5.4,10.5,11.2,9.4l0.8-0.2c4.4-0.9,8.8,1.5,10.5,5.6l1.3,3.2c2.1,5,8,7.2,12.8,4.7l7.6-4
						c3.9-2,8.5-2,12.5,0l7.6,4c4.8,2.5,10.8,0.3,12.8-4.7l1.3-3.2c1.7-4.1,6.1-6.5,10.5-5.6l0.8,0.2c5.8,1.1,11.2-3.3,11.2-9.2
						v-1.5c0-2.5,1.7-4.7,4.1-5.4l-47-98.8c-1.1-2.3-3-4.1-5.4-4.7c-3.9-1-7.8,0.9-9.4,4.3l-47.2,99.1
						C347.9,198,349.6,200.2,349.6,202.7z"/>
				</g>
			</g>
			<g>
				<path class="st0" d="M455.6,184.4L406.1,80.3c-0.9-1.8-2.4-3.3-4.4-3.8c-3.1-0.8-6.3,0.7-7.6,3.5l-49.7,104.4
					c-1.4,3,0.3,6.5,3.5,7.2c2.4,0.5,4.2,2.7,4.2,5.2v1.2c0,5.8,5.1,10,10.6,8.9l0.8-0.1c4.1-0.8,8.3,1.4,9.9,5.3l1.3,3.1
					c2,4.8,7.6,6.8,12.2,4.4l7.3-3.8c3.7-1.9,8.1-1.9,11.8,0l7.3,3.8c4.6,2.4,10.2,0.3,12.2-4.4l1.3-3.1c1.6-3.9,5.8-6.1,9.9-5.3
					l0.8,0.1c5.5,1.1,10.6-3.1,10.6-8.7v-1.4c0-2.5,1.7-4.7,4.2-5.2C455.3,190.9,457,187.3,455.6,184.4z"/>
				<path class="st12" d="M455.6,184.4L406.1,80.3c-0.9-1.8-2.4-3.3-4.4-3.8c-3.1-0.8-6.3,0.7-7.6,3.5l-49.7,104.4
					c-1.4,3,0.3,6.5,3.5,7.2c2.4,0.5,4.2,2.7,4.2,5.2v1.2c0,5.8,5.1,10,10.6,8.9l0.8-0.1c4.1-0.8,8.3,1.4,9.9,5.3l1.3,3.1
					c2,4.8,7.6,6.8,12.2,4.4l7.3-3.8c3.7-1.9,8.1-1.9,11.8,0l7.3,3.8c4.6,2.4,10.2,0.3,12.2-4.4l1.3-3.1c1.6-3.9,5.8-6.1,9.9-5.3
					l0.8,0.1c5.5,1.1,10.6-3.1,10.6-8.7v-1.4c0-2.5,1.7-4.7,4.2-5.2C455.3,190.9,457,187.3,455.6,184.4z"/>
				<g class="st11">
					<path d="M364.7,156v0.9c0,4.3,3.8,7.4,7.8,6.6l0.6-0.1c3.1-0.6,6.1,1,7.3,3.9l0.9,2.3c1.5,3.5,5.6,5,9,3.3l5.4-2.8
						c2.7-1.4,6-1.4,8.7,0l5.4,2.8c3.4,1.8,7.5,0.2,9-3.3l0.9-2.3c1.2-2.9,4.3-4.5,7.3-3.9l0.6,0.1c4,0.8,7.8-2.3,7.8-6.4v-1
						c0-1.8,1.3-3.4,3.1-3.8c0.6-0.1,1.1-0.4,1.5-0.7l-33.9-71.2c-0.9-1.8-2.4-3.3-4.4-3.8c-3.1-0.8-6.3,0.7-7.6,3.5l-34,71.5
						c0.4,0.3,0.9,0.6,1.5,0.7C363.4,152.5,364.7,154.1,364.7,156z"/>
				</g>
			</g>
			<path class="st0" d="M439.7,138.9l-35.4-74.3c-0.6-1.3-1.7-2.3-3.1-2.7c-2.2-0.6-4.5,0.5-5.4,2.5l-35.5,74.5
				c-1,2.1,0.2,4.6,2.5,5.1c1.7,0.4,3,1.9,3,3.7v0.9c0,4.1,3.6,7.1,7.6,6.3l0.5-0.1c3-0.6,5.9,1,7.1,3.8l0.9,2.2
				c1.4,3.4,5.4,4.9,8.7,3.2l5.2-2.7c2.6-1.4,5.8-1.4,8.4,0l5.2,2.7c3.3,1.7,7.3,0.2,8.7-3.2l0.9-2.2c1.1-2.8,4.1-4.4,7.1-3.8
				l0.5,0.1c3.9,0.8,7.6-2.2,7.6-6.2v-1c0-1.8,1.2-3.3,3-3.7C439.5,143.5,440.7,141,439.7,138.9z"/>
		</g>
		<g>
			<path class="st8" d="M144.9,255.9l-16.1-0.2l-0.4,30.4l0,0c0,1.2,0.8,2.4,2.3,3.3c3.1,1.9,8.2,1.9,11.4,0.1
				c1.6-0.9,2.4-2.1,2.4-3.3l0,0L144.9,255.9z"/>
			<path class="st9" d="M144.9,255.9l-16.1-0.2l-0.4,30.4l0,0c0,1.2,0.8,2.4,2.3,3.3c3.1,1.9,8.2,1.9,11.4,0.1
				c1.6-0.9,2.4-2.1,2.4-3.3l0,0L144.9,255.9z"/>
			<g>
				<path class="st10" d="M132.1,289.8L132.1,289.8c0.1-4.3-3.7-4.9-4.8-4.9c-1.1,0-4.8,0.5-4.9,4.8c0,0.7,0.5,1.4,1.4,2
					c1.9,1.1,4.9,1.2,6.8,0.1C131.6,291.2,132.1,290.5,132.1,289.8L132.1,289.8L132.1,289.8z"/>
				<path class="st9" d="M130.3,285.7c0.3,0.5,0.6,1,0.7,1.6c0.2,0.9,0.1,1.9-0.4,2.6c-0.5,0.8-1.5,1.2-2.4,1.4
					c-1.4,0.4-2.9,0.5-4.3,0.3c1.9,1.1,4.9,1.1,6.8,0c0.9-0.5,1.4-1.2,1.4-2l0,0C132.1,287.7,131.3,286.4,130.3,285.7z"/>
			</g>
			<g>
				<path class="st4" d="M124,292L124,292c0-3-2.6-3.4-3.3-3.5c-0.8,0-3.4,0.3-3.4,3.4c0,0.5,0.3,1,1,1.4c1.3,0.8,3.5,0.8,4.8,0.1
					C123.6,293,124,292.5,124,292L124,292L124,292z"/>
				<path class="st9" d="M122.7,289.2c0.2,0.3,0.4,0.7,0.5,1.1c0.2,0.6,0.1,1.3-0.3,1.9c-0.4,0.5-1,0.8-1.7,1c-1,0.3-2,0.3-3,0.2
					c1.3,0.8,3.4,0.8,4.7,0c0.7-0.4,1-0.9,1-1.4l0,0C124,290.5,123.4,289.7,122.7,289.2z"/>
			</g>
			<g>
				<path class="st4" d="M150.1,288.8L150.1,288.8c0-3.3-2.8-3.7-3.6-3.7c-0.8,0-3.7,0.4-3.7,3.6c0,0.5,0.4,1.1,1.1,1.5
					c1.4,0.9,3.8,0.9,5.2,0.1C149.8,289.9,150.1,289.4,150.1,288.8L150.1,288.8L150.1,288.8z"/>
				<path class="st9" d="M148.7,285.8c0.2,0.4,0.4,0.8,0.6,1.2c0.2,0.7,0.1,1.4-0.3,2c-0.4,0.6-1.1,0.9-1.8,1.1
					c-1.1,0.3-2.2,0.4-3.3,0.2c1.4,0.8,3.7,0.8,5.1,0c0.7-0.4,1.1-0.9,1.1-1.5l0,0C150.2,287.2,149.5,286.3,148.7,285.8z"/>
			</g>
			<g>
				<path class="st0" d="M191.4,238.8l-47-102.3c-0.8-1.8-2.3-3.3-4.2-3.8c-3.1-0.8-6.1,0.6-7.5,3.3L82.8,237.4
					c-1.4,2.9,0.2,6.4,3.3,7.1c2.4,0.6,4,2.7,4,5.1l0,1.2c-0.1,5.6,4.9,9.8,10.2,8.8l0.7-0.1c4.1-0.7,8.1,1.5,9.6,5.3l1.2,3
					c1.9,4.7,7.3,6.8,11.8,4.5l7.1-3.6c3.6-1.8,7.9-1.8,11.6,0.1l7,3.8c4.4,2.4,10,0.4,11.9-4.2l1.3-3c1.6-3.8,5.7-5.9,9.8-5.1
					l0.7,0.2c5.4,1.1,10.4-2.9,10.5-8.4l0-1.4c0-2.4,1.8-4.5,4.1-5C191,245.2,192.7,241.7,191.4,238.8z"/>
				<path class="st13" d="M191.4,238.8l-47-102.3c-0.8-1.8-2.3-3.3-4.2-3.8c-3.1-0.8-6.1,0.6-7.5,3.3L82.8,237.4
					c-1.4,2.9,0.2,6.4,3.3,7.1c2.4,0.6,4,2.7,4,5.1l0,1.2c-0.1,5.6,4.9,9.8,10.2,8.8l0.7-0.1c4.1-0.7,8.1,1.5,9.6,5.3l1.2,3
					c1.9,4.7,7.3,6.8,11.8,4.5l7.1-3.6c3.6-1.8,7.9-1.8,11.6,0.1l7,3.8c4.4,2.4,10,0.4,11.9-4.2l1.3-3c1.6-3.8,5.7-5.9,9.8-5.1
					l0.7,0.2c5.4,1.1,10.4-2.9,10.5-8.4l0-1.4c0-2.4,1.8-4.5,4.1-5C191,245.2,192.7,241.7,191.4,238.8z"/>
				<g class="st11">
					<path class="st0" d="M97.6,218l0,1c-0.1,4.8,4.1,8.3,8.7,7.5l0.6-0.1c3.5-0.6,6.9,1.3,8.2,4.5l1,2.6c1.6,4,6.2,5.8,10.1,3.8
						l6.1-3c3.1-1.6,6.8-1.5,9.8,0.1l6,3.2c3.8,2,8.5,0.4,10.2-3.6l1.1-2.5c1.4-3.2,4.9-5,8.3-4.3l0.6,0.1c4.5,1,8.8-2.5,8.9-7.1
						l0-1.1c0-2,1.4-3.7,3.3-4.2l-36-78.3c-0.8-1.8-2.3-3.3-4.2-3.8c-3.1-0.8-6.1,0.6-7.5,3.3l-38.2,77.6
						C96.3,214.3,97.6,216,97.6,218z"/>
				</g>
			</g>
			<g>
				<path class="st0" d="M181.4,204.6l-37.9-82.5c-0.7-1.4-1.9-2.6-3.4-3c-2.5-0.7-4.9,0.5-6,2.7l-40.2,81.7
					c-1.2,2.3,0.2,5.1,2.7,5.7c1.9,0.4,3.3,2.2,3.2,4.1l0,1c-0.1,4.5,3.9,7.9,8.3,7.1l0.6-0.1c3.3-0.6,6.5,1.2,7.8,4.3l1,2.4
					c1.5,3.8,5.9,5.5,9.6,3.6l5.8-2.9c2.9-1.5,6.4-1.4,9.3,0.1l5.7,3c3.6,1.9,8,0.4,9.6-3.4l1-2.4c1.3-3.1,4.6-4.8,7.9-4.1l0.6,0.1
					c4.3,0.9,8.4-2.4,8.4-6.8l0-1.1c0-2,1.4-3.6,3.3-4.1C181,209.7,182.4,207,181.4,204.6z"/>
				<path class="st12" d="M181.4,204.6l-37.9-82.5c-0.7-1.4-1.9-2.6-3.4-3c-2.5-0.7-4.9,0.5-6,2.7l-40.2,81.7
					c-1.2,2.3,0.2,5.1,2.7,5.7c1.9,0.4,3.3,2.2,3.2,4.1l0,1c-0.1,4.5,3.9,7.9,8.3,7.1l0.6-0.1c3.3-0.6,6.5,1.2,7.8,4.3l1,2.4
					c1.5,3.8,5.9,5.5,9.6,3.6l5.8-2.9c2.9-1.5,6.4-1.4,9.3,0.1l5.7,3c3.6,1.9,8,0.4,9.6-3.4l1-2.4c1.3-3.1,4.6-4.8,7.9-4.1l0.6,0.1
					c4.3,0.9,8.4-2.4,8.4-6.8l0-1.1c0-2,1.4-3.6,3.3-4.1C181,209.7,182.4,207,181.4,204.6z"/>
				<g class="st11">
					<path d="M110,181.3l0,0.7c0,3.4,2.9,5.8,6.1,5.3l0.4-0.1c2.4-0.4,4.8,0.9,5.7,3.2l0.7,1.8c1.1,2.8,4.4,4,7,2.7l4.3-2.1
						c2.2-1.1,4.7-1.1,6.9,0.1l4.2,2.3c2.6,1.4,5.9,0.3,7.1-2.5l0.8-1.8c1-2.3,3.4-3.5,5.8-3l0.4,0.1c3.2,0.7,6.2-1.7,6.2-5l0-0.8
						c0-1.4,1-2.7,2.5-3c0.4-0.1,0.9-0.3,1.2-0.6l-25.9-56.4c-0.7-1.4-1.9-2.6-3.4-3c-2.5-0.7-4.9,0.5-6,2.7l-27.6,55.9
						c0.3,0.3,0.7,0.5,1.2,0.6C109,178.6,110,179.8,110,181.3z"/>
				</g>
			</g>
			<path class="st0" d="M169.3,168.6l-27.1-58.9c-0.5-1-1.3-1.9-2.4-2.2c-1.8-0.5-3.5,0.4-4.3,1.9l-28.7,58.3
				c-0.8,1.7,0.1,3.7,1.9,4.1c1.4,0.3,2.3,1.6,2.3,2.9l0,0.7c0,3.2,2.8,5.6,5.9,5.1l0.4-0.1c2.3-0.4,4.7,0.9,5.5,3.1l0.7,1.7
				c1.1,2.7,4.2,3.9,6.8,2.6l4.1-2.1c2.1-1.1,4.6-1,6.6,0.1l4.1,2.2c2.6,1.4,5.7,0.3,6.9-2.4l0.7-1.7c0.9-2.2,3.3-3.4,5.6-2.9
				l0.4,0.1c3.1,0.6,6-1.7,6-4.8l0-0.8c0-1.4,1-2.6,2.4-2.9C169.1,172.2,170.1,170.3,169.3,168.6z"/>
		</g>
		<g>
			<g>
				<path class="st0" d="M67.5,161.4c0.3,0,0.6,0.1,0.9,0.1c1.8,0.3,3.6,0.9,5.2,1.8c0.8,0.4,1.6,0.9,2.3,1.5s1.1,1,1.6,1.8
					c1.4,2.6,1.7,5.9,4,7.7c1.6,1.3,3.7,1.6,5.7,2s4.1,1.2,5,3.1c1.2,2.3-0.3,5.1-1.8,7.2c-1.5,2.1-3.3,4.6-2.7,7.1
					c0.5,2.1,2.4,3.4,4.4,4.2s4.1,1.2,5.9,2.3c2.1,1.2,3.3,3.4,2.9,5.9c-0.5,3-3.4,3.6-4.8,6.1c-1,1.8-0.4,4.3,1.3,5.4
					c1.1,0.7,2.4,0.8,3.6,1.1s2.6,0.8,3.2,1.9c0.7,1.1,0.2,2.9-1.1,3.1c-1.1,0.2-1.3,2-0.6,2.9c0.7,0.9,1.9,1.3,3,1.5
					s2.3,0.2,3.4,0.6c2,0.6,3.6,2.3,4.1,4.3c0.5,2-0.1,4.3-1.6,5.7c-0.9,0.9-2,1.4-3.1,2c-1.1,0.6-2.2,1.2-3,2.1
					c-0.8,0.9-1.4,2.1-1.2,3.4s1.4,2.2,2.6,2c2.6,0.2,4.1,0.7,6.3,2c2.3,1.3,4.1,3.4,4.7,5.9c0.5,2.5-0.6,5.4-2.9,6.6
					c-1.4,0.7-3.1,0.7-4.8,0.7s-3.3-0.1-4.8,0.6c-1.5,0.7-2.7,2.3-2.3,3.8c0.3,1.2,1.4,2.1,2.4,2.9c1,0.8,2,1.9,1.9,3.1
					c-0.1,1.3-1.3,2.3-2.5,2.9c-4.5,2.3-10,2.4-14.6,0.3c-1.2-0.5-2.5-1.3-3.8-0.7c-1.1,0.5-1,2-1.6,3c-0.9,1.5-2.8,2.2-4.3,2.8
					c-2,0.7-4.4,0.5-6.3-0.4c-2-0.9-3.5-2.5-5-4c-1.5-1.5-2.9-3-4.4-4.5c-3.1-3.1-7.5,0.2-10.9,3c-1,0.8-1.9,1.8-2.9,2.6
					c-1,0.8-2.2,1.5-3.5,1.6c-1.3,0.1-2.7-0.6-3.2-1.8c-0.5-1.2-0.1-2.7-0.9-3.7c-0.7-0.9-2-0.9-3.1-0.8c-1.9,0.3-3.7,1-5.6,1.1
					c-1.9,0.1-4.1-0.5-5-2.1c-0.8-1.4-0.5-3.2-0.5-4.9c0-1.6-0.4-3.6-1.9-4.2c-1.6-0.7-2.4-1.2-3.7-2.4c-1.3-1.2-2.2-3-1.9-4.8
					c0.3-1.7,1.5-3,3-3.9c1.4-0.9,3.1-1.4,4.6-2.1c1.6-0.7,3.1-1.6,4-3c1.1-1.6,1.2-3.8,0.3-5.5c-0.9-1.7-2.8-2.9-4.7-2.9
					c-1.4,0-2.1-0.3-3.4-0.8c-1.3-0.5-2.4-1.8-2.2-3.2c0.1-0.9,0.8-1.7,1.5-2.3c0.8-0.6,1.6-1,2.4-1.5c1.6-1.1,2.7-2.7,4-4.2
					c1.3-1.5,2.8-2.9,4.7-3.2c0.6-0.1,1.2-0.1,1.8-0.2s1.2-0.4,1.5-0.9c0.9-1.4-0.7-2.8-0.5-4.3c0.1-1.1,0.7-2,1.6-2.6
					c0.6-0.4,1.4-0.7,2.1-1.1c0.7-0.4,1.4-0.9,1.5-1.7c0.2-0.8-0.2-1.6-0.1-2.5c0.1-0.9,0.7-1.6,1-2.4c0.5-1.4,0-3-0.9-4.2
					c-1.3-1.6-3.2-2.5-3.8-4.6c-0.5-1.6,0-3.4,1.2-4.6c3-2.9,7.9,0.2,11-2.6c2.2-2.1,1.4-5.7,0.1-8.1c-0.6-1.1-1.3-2.2-1.8-3.4
					c-0.5-1.3-0.6-3.2,0.4-4.3c1.1-1.2,2.8-1.4,4.4-1.6c1.6-0.2,3.4-0.6,4.2-2c0.6-1.1,0.5-2.4,0.2-3.7c-0.2-1-0.5-2.1-0.4-3.1
					c0.2-1,0.6-1.9,1.3-2.6c0.9-1,2.3-1.6,3.6-1.9C65.4,161.3,66.4,161.3,67.5,161.4z"/>
				<path class="st5" d="M67.5,161.4c0.3,0,0.6,0.1,0.9,0.1c1.8,0.3,3.6,0.9,5.2,1.8c0.8,0.4,1.6,0.9,2.3,1.5s1.1,1,1.6,1.8
					c1.4,2.6,1.7,5.9,4,7.7c1.6,1.3,3.7,1.6,5.7,2s4.1,1.2,5,3.1c1.2,2.3-0.3,5.1-1.8,7.2c-1.5,2.1-3.3,4.6-2.7,7.1
					c0.5,2.1,2.4,3.4,4.4,4.2s4.1,1.2,5.9,2.3c2.1,1.2,3.3,3.4,2.9,5.9c-0.5,3-3.4,3.6-4.8,6.1c-1,1.8-0.4,4.3,1.3,5.4
					c1.1,0.7,2.4,0.8,3.6,1.1s2.6,0.8,3.2,1.9c0.7,1.1,0.2,2.9-1.1,3.1c-1.1,0.2-1.3,2-0.6,2.9c0.7,0.9,1.9,1.3,3,1.5
					s2.3,0.2,3.4,0.6c2,0.6,3.6,2.3,4.1,4.3c0.5,2-0.1,4.3-1.6,5.7c-0.9,0.9-2,1.4-3.1,2c-1.1,0.6-2.2,1.2-3,2.1
					c-0.8,0.9-1.4,2.1-1.2,3.4s1.4,2.2,2.6,2c2.6,0.2,4.1,0.7,6.3,2c2.3,1.3,4.1,3.4,4.7,5.9c0.5,2.5-0.6,5.4-2.9,6.6
					c-1.4,0.7-3.1,0.7-4.8,0.7s-3.3-0.1-4.8,0.6c-1.5,0.7-2.7,2.3-2.3,3.8c0.3,1.2,1.4,2.1,2.4,2.9c1,0.8,2,1.9,1.9,3.1
					c-0.1,1.3-1.3,2.3-2.5,2.9c-4.5,2.3-10,2.4-14.6,0.3c-1.2-0.5-2.5-1.3-3.8-0.7c-1.1,0.5-1,2-1.6,3c-0.9,1.5-2.8,2.2-4.3,2.8
					c-2,0.7-4.4,0.5-6.3-0.4c-2-0.9-3.5-2.5-5-4c-1.5-1.5-2.9-3-4.4-4.5c-3.1-3.1-7.5,0.2-10.9,3c-1,0.8-1.9,1.8-2.9,2.6
					c-1,0.8-2.2,1.5-3.5,1.6c-1.3,0.1-2.7-0.6-3.2-1.8c-0.5-1.2-0.1-2.7-0.9-3.7c-0.7-0.9-2-0.9-3.1-0.8c-1.9,0.3-3.7,1-5.6,1.1
					c-1.9,0.1-4.1-0.5-5-2.1c-0.8-1.4-0.5-3.2-0.5-4.9c0-1.6-0.4-3.6-1.9-4.2c-1.6-0.7-2.4-1.2-3.7-2.4c-1.3-1.2-2.2-3-1.9-4.8
					c0.3-1.7,1.5-3,3-3.9c1.4-0.9,3.1-1.4,4.6-2.1c1.6-0.7,3.1-1.6,4-3c1.1-1.6,1.2-3.8,0.3-5.5c-0.9-1.7-2.8-2.9-4.7-2.9
					c-1.4,0-2.1-0.3-3.4-0.8c-1.3-0.5-2.4-1.8-2.2-3.2c0.1-0.9,0.8-1.7,1.5-2.3c0.8-0.6,1.6-1,2.4-1.5c1.6-1.1,2.7-2.7,4-4.2
					c1.3-1.5,2.8-2.9,4.7-3.2c0.6-0.1,1.2-0.1,1.8-0.2s1.2-0.4,1.5-0.9c0.9-1.4-0.7-2.8-0.5-4.3c0.1-1.1,0.7-2,1.6-2.6
					c0.6-0.4,1.4-0.7,2.1-1.1c0.7-0.4,1.4-0.9,1.5-1.7c0.2-0.8-0.2-1.6-0.1-2.5c0.1-0.9,0.7-1.6,1-2.4c0.5-1.4,0-3-0.9-4.2
					c-1.3-1.6-3.2-2.5-3.8-4.6c-0.5-1.6,0-3.4,1.2-4.6c3-2.9,7.9,0.2,11-2.6c2.2-2.1,1.4-5.7,0.1-8.1c-0.6-1.1-1.3-2.2-1.8-3.4
					c-0.5-1.3-0.6-3.2,0.4-4.3c1.1-1.2,2.8-1.4,4.4-1.6c1.6-0.2,3.4-0.6,4.2-2c0.6-1.1,0.5-2.4,0.2-3.7c-0.2-1-0.5-2.1-0.4-3.1
					c0.2-1,0.6-1.9,1.3-2.6c0.9-1,2.3-1.6,3.6-1.9C65.4,161.3,66.4,161.3,67.5,161.4z"/>
				<path class="st2" d="M21.6,256.3c0.3-1.7,1.5-3,3-3.9c1.4-0.9,3.1-1.4,4.6-2.1c1.6-0.7,3.1-1.6,4-3c1.1-1.6,1.2-3.8,0.3-5.5
					c-0.9-1.7-2.8-2.9-4.7-2.9c-1.4,0-2.1-0.3-3.4-0.8c-1.3-0.5-2.4-1.8-2.2-3.2c0.1-0.9,0.8-1.7,1.5-2.3c0.8-0.6,1.6-1,2.4-1.5
					c1.6-1.1,2.7-2.7,4-4.2c1.3-1.5,2.8-2.9,4.7-3.2c0.6-0.1,1.2-0.1,1.8-0.2s1.2-0.4,1.5-0.9c0.9-1.4-0.7-2.8-0.5-4.3
					c0.1-1.1,0.7-2,1.6-2.6c0.6-0.4,1.4-0.7,2.1-1.1c0.7-0.4,1.4-0.9,1.5-1.7c0.2-0.8-0.2-1.6-0.1-2.5c0.1-0.9,0.7-1.6,1-2.4
					c0.5-1.4,0-3-0.9-4.2c-1.3-1.6-3.2-2.5-3.8-4.6c-0.2-0.8-0.2-1.7,0-2.5c0.2,0.8,0.6,1.6,1.2,2.2c1.2,1.3,2.9,2,4.5,2.8
					s3.3,1.7,4.1,3.3c1.2,2.2,0.5,4.9-0.8,7c-1.3,2.1-3,3.9-4.2,6.1s-1.7,5-0.3,7c1,1.4,2.8,2.4,2.9,4.1c0.2,1.6-1.3,2.9-1.7,4.5
					c-0.6,2.1,0.6,4.3,0.8,6.5c0.1,1.5-0.3,3-1,4.3c-0.7,1.2-1.7,1.7-2.8,2.5c-2.1,1.4-4.3,3.1-5,5.7c-0.4,1.5-0.1,3.3,1,4.4
					c0.9,0.9,2.2,1.4,3.5,1.4s2.6-0.4,3.8-0.8c1-0.4,2.2-0.9,3.2-0.3c0.8,0.4,1.1,1.5,1,2.3c-0.1,0.9-0.5,1.7-0.9,2.5
					c-0.4,0.8-0.7,1.7-0.6,2.6c0.1,1.5,1.5,2.7,3,3.1c1.4,0.3,3.2,0,4.6-0.3c1.5-0.3,2.7-1.8,3.9-2.6c1.9-1.2,4.4-1.2,6.5-0.4
					s3.8,2.5,5,4.4c0.7,1.2,1.2,2.4,1.9,3.6c0.7,1.1,1.7,2.2,2.9,2.8c1.3,0.5,2.8,0.4,3.8-0.6c0.6-0.7,0.8-1.6,0.9-2.5
					c0.1-0.9,0-1.8,0-2.7c0.1-0.9,0.4-1.8,1-2.5c0.7-0.6,1.8-0.8,2.5-0.2c3.2,2.7,7.4,2.1,11,4.2c0.7,0.4,1.4,0.8,2.2,1
					c0.8,0.2,1.7,0,2.3-0.6c0.7-0.8,0.6-2,0.3-2.9s-0.9-1.9-1-2.9c-0.3-2.4,1.9-4,3.9-4.7c1.2-0.4,2.6-0.1,3.8,0
					c1.6,0.1,3.2,0.2,4.7,0.3c1.4,0.1,2.9,0.2,4.2-0.5c0.5-0.3,0.9-0.6,1.3-1c-0.5,1.2-1.3,2.3-2.5,2.9c-1.4,0.7-3.1,0.7-4.8,0.7
					s-3.3-0.1-4.8,0.6c-1.5,0.7-2.7,2.3-2.3,3.8c0.3,1.2,1.4,2.1,2.4,2.9c1,0.8,2,1.9,1.9,3.1c-0.1,1.3-1.3,2.3-2.5,2.9
					c-4.5,2.3-10,2.4-14.6,0.3c-1.2-0.5-2.5-1.3-3.8-0.7c-1.1,0.5-1,2-1.6,3c-0.9,1.5-2.8,2.2-4.3,2.8c-2,0.7-4.4,0.5-6.3-0.4
					c-2-0.9-3.5-2.5-5-4c-1.5-1.5-2.9-3-4.4-4.5c-3.1-3.1-7.5,0.2-10.9,3c-1,0.8-1.9,1.8-2.9,2.6c-1,0.8-2.2,1.5-3.5,1.6
					c-1.3,0.1-2.7-0.6-3.2-1.8c-0.5-1.2-0.1-2.7-0.9-3.7c-0.7-0.9-2-0.9-3.1-0.8c-1.9,0.3-3.7,1-5.6,1.1c-1.9,0.1-4.1-0.5-5-2.1
					c-0.8-1.4-0.5-3.2-0.5-4.9c0-1.6-0.4-3.6-1.9-4.2c-1.6-0.7-2.4-1.2-3.7-2.4C22.2,259.9,21.3,258.1,21.6,256.3z"/>
			</g>
			<path class="st6" d="M88.1,222.9c-6.2,10-13.8,23.6-17,29.2c-0.4-25.1-1-49.5-1.9-69.1c-1.1,20.6-1.6,46-1.8,72
				c-3.3-6.7-9.1-18.6-14-27.7c3.5,10.9,10.9,26.8,14,33.5c-0.4,64.6,1.1,72.2,1.1,72.2h3.5c0,0,0.3-10.2-0.7-75.7
				C73.8,252.5,83.5,234.7,88.1,222.9z"/>
		</g>
	</g>
</g>
<g id="Rocks">
</g>
<g id="Character_2">
	<g>
		<g>
			<g>
				<path class="st4" d="M349.5,235.4l-2.3,0.7l-1.4-0.4l0.6,19.8l4.4,2.5c0.1,0,0.1,0.1,0.2,0.1c0.4,0.1,0.8-0.1,1-0.4
					c0.2-0.3,0.3-0.7,0.4-1.1C353.5,249.5,352.5,242,349.5,235.4z"/>
				<path class="st12" d="M349.5,235.4l-2.3,0.7l-1.4-0.4l0.6,19.8l4.4,2.5c0.1,0,0.1,0.1,0.2,0.1c0.4,0.1,0.8-0.1,1-0.4
					c0.2-0.3,0.3-0.7,0.4-1.1C353.5,249.5,352.5,242,349.5,235.4z"/>
				<path class="st4" d="M349.5,235.4c3,6.6,4,14.1,2.9,21.2c-0.1,0.4-0.1,0.8-0.4,1.1c-0.2,0.3-0.7,0.5-1,0.4
					c-0.3-0.1-0.5-0.4-0.6-0.7c-0.1-0.3,0-0.6,0-1c0.9-6.8-0.1-14.3-3.3-20.3L349.5,235.4z"/>
				<polygon class="st4" points="334.3,297.7 334.3,297.7 334.3,297.7 				"/>
				<path class="st4" d="M347.2,236.1l-16.9-4.7l-11.6-0.8c0,0-3.7,63.3,0,64.6c3.5,1.2,8.2,3.2,14.5,2.6c0.4,0,0.7,0,1.1-0.1h0
					c0.4-0.1,0.8-0.2,1.1-0.4c3.6-1.7,8.3-4.2,10.9-6.7C349.3,272.6,349.6,254.2,347.2,236.1z"/>
				<g>
					<path class="st4" d="M349.6,268.8l-12.9,2.9l-5,1.1v12.9c0,1.3,0.7,2.6,1.9,3.3l1.9,1.1c0.6,0.4,1.4,0.5,2.1,0.5
						c0.6,0,1.2-0.2,1.7-0.5l7.9-4.5c1.6-1,2.7-2.6,2.8-4.5C350.3,275.7,349.6,268.8,349.6,268.8z"/>
					<path class="st12" d="M336.7,271.8l-5,1.1v12.9c0,1.3,0.7,2.6,1.9,3.3l1.9,1.1c0.6,0.4,1.4,0.5,2.1,0.5
						C335.5,290.5,336.5,283.1,336.7,271.8z"/>
					<g>
						<path class="st4" d="M331.8,272.9l12.2-6.4c3.9-1.8,6.1,0.6,6,2.5c0,1.8-2,8.6-4.6,11.5c-1.9,2.1-5.9-2.5-7.9-5.2
							c-0.8-1.1-2-1.8-3.4-2L331.8,272.9z"/>
						<path class="st1" d="M331.8,272.9l12.2-6.4c3.9-1.8,6.1,0.6,6,2.5c0,1.8-2,8.6-4.6,11.5c-1.9,2.1-5.9-2.5-7.9-5.2
							c-0.8-1.1-2-1.8-3.4-2L331.8,272.9z"/>
						<g>
							<path class="st4" d="M344.5,275.8c0.6-0.4,1.1-0.1,1.1,0.6s-0.5,1.5-1.1,1.9c-0.6,0.4-1.1,0.1-1.1-0.6
								C343.4,277,343.9,276.1,344.5,275.8z"/>
						</g>
					</g>
				</g>
				<path class="st12" d="M328.1,294c-6.9-23.4,2.1-62.6,2.1-62.6l-11.6-0.8c0,0-3.7,63.3,0,64.6c3.5,1.2,8.2,3.2,14.5,2.6
					C330.9,297.8,328.8,296.3,328.1,294z"/>
			</g>
			<g>
				<path class="st4" d="M340.1,234.5c0-4.8,3.4-10.7,7.6-13.2c1.5-0.9,2.9-1.2,4-1l0-0.1c-9.2-0.3-36.6-7.4-45.1-13.9v0
					c-1.4-1-3.5-1-5.8,0.3c-4.2,2.4-7.6,8.3-7.6,13.2c0,2.8,1.1,4.6,2.9,5.2l0,0c1.8,0.7,41.3,12.9,46.6,14.5l0,0
					C341.2,238.9,340.1,237.1,340.1,234.5z"/>
				<path class="st1" d="M340.1,234.5c0-4.8,3.4-10.7,7.6-13.2c1.5-0.9,2.9-1.2,4-1l0-0.1c-9.2-0.3-36.6-7.4-45.1-13.9v0
					c-1.4-1-3.5-1-5.8,0.3c-4.2,2.4-7.6,8.3-7.6,13.2c0,2.8,1.1,4.6,2.9,5.2l0,0c1.8,0.7,41.3,12.9,46.6,14.5l0,0
					C341.2,238.9,340.1,237.1,340.1,234.5z"/>
				<path class="st4" d="M351.7,220.3c-1.2-0.2-2.5,0.1-4,1c-4.2,2.4-7.6,8.3-7.6,13.2c0,2.7,1,4.4,2.7,5.1c1.3,0.6,3.1,0.4,5-0.7
					c4.2-2.4,7.6-8.3,7.6-13.2C355.4,222.5,353.9,220.6,351.7,220.3z"/>
				<path class="st14" d="M351.7,220.3c-1.2-0.2-2.5,0.1-4,1c-4.2,2.4-7.6,8.3-7.6,13.2c0,2.7,1,4.4,2.7,5.1c1.3,0.6,3.1,0.4,5-0.7
					c4.2-2.4,7.6-8.3,7.6-13.2C355.4,222.5,353.9,220.6,351.7,220.3z"/>
			</g>
		</g>
		<path class="st15" d="M282.8,210.6c0.5,1.1,1.8,1.7,2.5,2.7c0.5,0.8,0.5,1.9,0,2.7s-1.4,1.3-2.4,1.3c-1,0-1.9-0.6-2.3-1.5
			c-0.2,1-0.3,2,0,3s0.9,1.9,1.9,2.2c-1.5,1.4-1.9,3.7-1.2,5.6c0.7,1.9,2.6,3.4,4.6,3.5c-0.4,2.8,1.4,5.8,3.7,7.4s5.2,2.1,8,1.9
			c2.8-0.3,5.5-1.2,8-2.4c3.9,1.4,8.1,2.2,12.2,1.8c2.6-0.3,5.4-1,7.2-2.9c1.8-1.9,2.2-5.3,0.3-7.1c1.1,0.9,2.9,0.7,4.1,0
			c1.2-0.6,2-2.1,1.8-3.4s-1.1-2.6-2.5-3c0.9-0.6,1.6-1.7,1.4-2.8c-0.1-1-1-2-2-2.3c0.2,0.9,0,2-0.7,2.6c-0.7,0.6-1.8,0.6-2.6,0.1
			c-0.8-0.5-1.2-1.3-1.3-2.2c-0.1-0.9,0-1.8,0-2.6c0.3-3,0.3-6.2-0.9-9c-1.1-2.8-3.5-5.3-6.5-5.8c-1.1-3.5-3.7-6.6-6.9-8.4
			c-3.2-1.8-7.1-2.4-10.7-1.6c-3,0.7-6,2.5-7.2,5.3c-1.3-0.3-2.7-0.4-4-0.3c-1.3,0-2.6,0.4-3.6,1.3s-1.4,2.4-0.8,3.6
			c0.4,0.8,1.3,1.6,1,2.4c-0.2,0.8-1,1.1-1.5,1.8c-0.4,0.6-0.3,1.4,0,2.1c0.3,0.7,0.8,1.2,1.3,1.8c0.5,0.5,0.9,1.2,0.7,1.8
			C284.4,211,283.1,211.2,282.8,210.6z"/>
		<g>
			<path class="st8" d="M296.4,234.2h-3.6c-4.5,0-8.6,2.6-10.5,6.7l-9.2,20.2c-8.4,2.4-14.2,6.8-21.9,7.4c-1.5,0-6.7-2.6-8.8-3.7
				c-0.4-0.2-1,0-1.1,0.5l0,0c-0.2,0.8,0.1,1.5,0.7,2l2.4,1.8c-4.9,1-8.8-1.8-10.5,0.4s-0.5,5.7,4.8,7.5c5.3,1.8,12.1,0.9,18.8-0.6
				c6.7-1.5,21.6-5.9,21.6-5.9C292.2,258,296.4,234.2,296.4,234.2z"/>
			<path class="st9" d="M296.4,234.2h-3.6c-4.5,0-8.6,2.6-10.5,6.7l-9.2,20.2c-8.4,2.4-14.2,6.8-21.9,7.4c-1.5,0-6.7-2.6-8.8-3.7
				c-0.4-0.2-1,0-1.1,0.5l0,0c-0.2,0.8,0.1,1.5,0.7,2l2.4,1.8c-4.9,1-8.8-1.8-10.5,0.4s-0.5,5.7,4.8,7.5c5.3,1.8,12.1,0.9,18.8-0.6
				c6.7-1.5,21.6-5.9,21.6-5.9C292.2,258,296.4,234.2,296.4,234.2z"/>
		</g>
		<path class="st0" d="M287.5,275.2c-3.3-15.1-5.2-31.2,5.7-40.9C285.8,233,274.2,245,287.5,275.2z"/>
		<g>
			<g>
				<g>
					<path class="st8" d="M290.3,397.9c-0.2,4.1-1.4,8.9-1.4,8.9c2.3,6.2,9.6,2.9,9.6,2.9l0.1-1l0.1-0.8c0.4-2.2,1.8-6.8,1.8-6.8
						L290.3,397.9z"/>
					<path class="st9" d="M290.3,397.9c-0.2,4.1-1.4,8.9-1.4,8.9c2.3,6.2,9.6,2.9,9.6,2.9l0.1-1l0.1-0.8c0.4-2.2,1.8-6.8,1.8-6.8
						L290.3,397.9z"/>
				</g>
				<g>
					<path class="st16" d="M297.8,418c-0.9,0.7-2,1.3-2.9,2c-2.6,1.9-4.3,4.4-6.9,6.3c-2.6,1.9-5.9,2.8-9,2.5
						c-2.9-0.3-6.5-1.6-8.8-3.6c0,0.6,0.1,1.3,0.2,2c2.2,2.3,5.2,3.8,8.4,4.1c3.2,0.3,6.5-0.6,9-2.5c2.6-1.9,4.3-4.4,6.9-6.3
						c0.9-0.7,2-1.3,2.9-2c0.9-0.7,1.7-1.6,2.2-2.7c0,0-0.1-0.7-0.1-1.8C299.1,416.7,298.5,417.5,297.8,418z"/>
					<g>
						<path class="st10" d="M299.5,408.8c0-0.7-0.7-0.9-0.7-0.9l-0.1,0.8c0,0-1.4,0.3-3,0c-0.6-0.1-1.3,0.1-1.8,0.5l-0.3,0.3
							c-0.1,0.1-0.4,0.3-0.5,0.2c-0.1,0-0.2-0.2-0.2-0.3c0-0.1,0-0.3,0.1-0.4c0.1-0.3,0.2-0.6,0.3-0.9c0.1-0.5,0-1.1-0.4-1.5
							c-1.1-0.9-2.4-1.5-3.8-1.5c-0.4,0-0.8,0.3-0.9,0.7c-0.9,4.5-9.1,11.7-11.7,12.1c-0.2,0-0.4,0.1-0.6,0.1
							c4.1,0.5,9.4,2.7,9.8,9.6c0.8-0.4,1.6-0.8,2.4-1.4c2.6-1.9,4.3-4.4,6.9-6.3c0.9-0.7,2-1.3,2.9-2c0.8-0.6,1.4-1.3,1.8-2.1
							C299.5,414.1,299.4,411.3,299.5,408.8z"/>
						<path class="st17" d="M275.8,418.1c-3.5,0.7-5.9,2.4-5.7,7.1c2.3,2,5.9,3.4,8.8,3.6c2.3,0.2,4.6-0.2,6.7-1.2
							C285.2,420.8,279.9,418.6,275.8,418.1z"/>
					</g>
				</g>
			</g>
			<g>
				<g>
					<path class="st8" d="M338.4,383.1c3.4,2.6,4.9,5.6,4.9,5.6c4.1,2.5,8.6-4.9,8.6-4.9l-0.3-0.7c-1.2-2-4-7.1-4-7.1L338.4,383.1z"
						/>
					<path class="st9" d="M338.4,383.1c3.4,2.6,4.9,5.6,4.9,5.6c4.1,2.5,8.6-4.9,8.6-4.9l-0.3-0.7c-1.2-2-4-7.1-4-7.1L338.4,383.1z"
						/>
				</g>
				<g>
					<path class="st16" d="M356.5,392c-0.4,1.1-0.9,2.2-1.2,3.3c-1,3.1-1,6.1-2,9.2c-1,3-3.1,5.7-5.9,7.3c-2.5,1.5-6.3,2.5-9.3,2.1
						c0.4,0.5,0.8,1,1.3,1.5c3.1,0.6,6.5,0.1,9.3-1.5c2.8-1.6,4.9-4.3,5.9-7.3c1-3.1,1-6.1,2-9.2c0.4-1.1,0.9-2.2,1.2-3.3
						s0.5-2.3,0.2-3.5c0,0-0.5-0.5-1.2-1.4C356.9,390.2,356.7,391.1,356.5,392z"/>
					<g>
						<path class="st10" d="M352.6,383.5c-0.4-0.6-1.1-0.4-1.1-0.4l0.3,0.7c0,0-1,1-2.5,1.8c-0.6,0.3-1,0.8-1.1,1.5l-0.1,0.4
							c0,0.2-0.1,0.5-0.3,0.5c-0.1,0-0.3,0-0.3-0.1s-0.1-0.2-0.1-0.4c-0.1-0.3-0.2-0.6-0.3-0.9c-0.2-0.5-0.6-0.9-1.2-0.9
							c-1.4-0.1-2.8,0.2-4,1c-0.4,0.2-0.5,0.7-0.3,1.1c1.9,4.1-0.7,14.8-2.6,16.6c-0.1,0.1-0.3,0.3-0.4,0.4c3.7-2,9.2-3.2,13.5,2.2
							c0.5-0.8,0.9-1.6,1.1-2.5c1-3.1,1-6.1,2-9.2c0.4-1.1,0.9-2.2,1.2-3.3c0.3-0.9,0.4-1.8,0.3-2.8
							C355.6,387.9,353.9,385.6,352.6,383.5z"/>
						<path class="st17" d="M338.6,404.8c-2.5,2.6-3.4,5.4-0.5,9.1c3,0.3,6.8-0.7,9.3-2.1c2-1.1,3.6-2.8,4.8-4.8
							C347.8,401.6,342.3,402.8,338.6,404.8z"/>
					</g>
				</g>
			</g>
			<path class="st0" d="M323.9,266.5c11.4,24.3,3.4,41.5-5.2,67.9c7.2,5.1,17.5,21,29.7,42c0,0-2.8,6.9-10.2,7.3
				c-1.5-1.9-25.3-24.8-25.3-24.8l-11.3,43.6c0,0-6.5,1.3-12.1-4c0,0,3.6-49.4,5.6-61.5c-5.9-11.1-14.4-30.6-7.8-66.1L323.9,266.5z"
				/>
			<path class="st9" d="M323.9,266.5c11.4,24.3,3.4,41.5-5.2,67.9c7.2,5.1,17.5,21,29.7,42c0,0-2.8,6.9-10.2,7.3
				c-1.5-1.9-25.3-24.8-25.3-24.8l-11.3,43.6c0,0-6.5,1.3-12.1-4c0,0,3.6-49.4,5.6-61.5c-5.9-11.1-14.4-30.6-7.8-66.1L323.9,266.5z"
				/>
			<path class="st12" d="M295.7,333.8c2.2-19.3,4.9-32.4,4.9-32.4c-7.4-3.8-9.8-7.8-9.8-7.8c1.3,6.5,7,10,7,10
				C295.8,314.8,295.7,333.8,295.7,333.8z"/>
			<path class="st12" d="M312.9,358.9c1.1-4.5,0.9-9.8,0.9-9.8l4.9-14.7l-3.5,14.9c0.4,3.5,0.7,9.6,0,11.8L312.9,358.9z"/>
		</g>
		<g>
			<path class="st4" d="M324.5,256.8c0-3.2,0.1-21.3,0.1-21.3l-10.5-0.9c-1.7,2.2-3.7,4-6.1,5.3c-3,1.7-6.4,2.6-9.9,2.6
				c-1.3,0-2.6-0.1-3.6-0.9c-1.3-1.1-1.5-3.1-1-4.7c0.3-1,0.9-1.9,1.5-2.7h-3.1c-3.7,3.3-10,14.2-10,21.4c0,2.2,1.4,6.3,3.3,7.4
				c0,0,1.3,8.2-0.4,20.3c19.7,12.6,44.1-3.8,44.1-3.8C325.2,269.6,324.5,262.6,324.5,256.8z"/>
			<path class="st5" d="M324.5,256.8c0-3.2,0.1-21.3,0.1-21.3l-10.5-0.9c-1.7,2.2-3.7,4-6.1,5.3c-3,1.7-6.4,2.6-9.9,2.6
				c-1.3,0-2.6-0.1-3.6-0.9c-1.3-1.1-1.5-3.1-1-4.7c0.3-1,0.9-1.9,1.5-2.7h-3.1c-3.7,3.3-10,14.2-10,21.4c0,2.2,1.4,6.3,3.3,7.4
				c0,0,1.3,8.2-0.4,20.3c19.7,12.6,44.1-3.8,44.1-3.8C325.2,269.6,324.5,262.6,324.5,256.8z"/>
		</g>
		<g>
			<path class="st8" d="M294.5,241.6c1,0.8,2.3,0.9,3.6,0.9c3.4,0,6.9-0.9,9.9-2.6c2.4-1.3,4.5-3.2,6.1-5.3l-3.5-0.3v-11.4
				l-12.4,4.8v6.6H295c-0.6,0.8-1.2,1.7-1.5,2.7C293,238.5,293.2,240.5,294.5,241.6z"/>
			<path class="st9" d="M294.5,241.6c1,0.8,2.3,0.9,3.6,0.9c3.4,0,6.9-0.9,9.9-2.6c2.4-1.3,4.5-3.2,6.1-5.3l-3.5-0.3v-11.4
				l-12.4,4.8v6.6H295c-0.6,0.8-1.2,1.7-1.5,2.7C293,238.5,293.2,240.5,294.5,241.6z"/>
			<path class="st12" d="M309.6,223.2c-3.7,7.2-6,7.3-11.5,8v-3.5L309.6,223.2z"/>
		</g>
		<path class="st8" d="M287.3,206.6c-1.1,5.4-1.1,11-0.2,16.4c0.4,2,1,4.2,2.6,5.5c2,1.6,4.9,1.4,7.4,1c2.8-0.4,5.6-0.7,8.1-1.8
			c2.6-1.1,4.9-3.1,5.7-5.8c1.3,0.9,3.2,0.4,4.3-0.7s1.6-2.8,1.6-4.4c0-1.4-0.3-3.1-1.6-3.8c-0.8-0.5-1.9-0.5-2.8-0.1
			c-0.9,0.4-1.7,1-2.4,1.7c-0.4,0.4-0.7,0.7-1.1,1c-0.4,0.2-1,0.3-1.4,0c-0.5-0.4-0.6-1.1-0.6-1.7c-0.1-2.5-0.4-5.1-1.6-7.2
			c-1.3-2.1-3.9-3.7-6.3-3.1c-1.1,0.3-2.1,1-3.3,1.1c-0.9,0-1.8-0.4-2.6-0.9c0,0,0,0,0,0C290.5,202.5,287.9,203.7,287.3,206.6z"/>
		<path class="st9" d="M287.3,206.6c-1.1,5.4-1.1,11-0.2,16.4c0.4,2,1,4.2,2.6,5.5c2,1.6,4.9,1.4,7.4,1c2.8-0.4,5.6-0.7,8.1-1.8
			c2.6-1.1,4.9-3.1,5.7-5.8c1.3,0.9,3.2,0.4,4.3-0.7s1.6-2.8,1.6-4.4c0-1.4-0.3-3.1-1.6-3.8c-0.8-0.5-1.9-0.5-2.8-0.1
			c-0.9,0.4-1.7,1-2.4,1.7c-0.4,0.4-0.7,0.7-1.1,1c-0.4,0.2-1,0.3-1.4,0c-0.5-0.4-0.6-1.1-0.6-1.7c-0.1-2.5-0.4-5.1-1.6-7.2
			c-1.3-2.1-3.9-3.7-6.3-3.1c-1.1,0.3-2.1,1-3.3,1.1c-0.9,0-1.8-0.4-2.6-0.9c0,0,0,0,0,0C290.5,202.5,287.9,203.7,287.3,206.6z"/>
		<g>
			<polygon class="st8" points="295,213.3 291.8,218.8 295.7,219.6 			"/>
			<polygon class="st2" points="295,213.3 291.8,218.8 295.7,219.6 			"/>
			<polygon class="st18" points="295,213.3 291.8,218.8 295.7,219.6 			"/>
			<path class="st8" d="M299.5,221.5c-1,0.5-2,1-3,1.4c0.4,0.7,1.5,1,2.3,0.6C299.5,223.2,299.7,222.3,299.5,221.5z"/>
			<path class="st19" d="M299.5,221.5c-1,0.5-2,1-3,1.4c0.4,0.7,1.5,1,2.3,0.6C299.5,223.2,299.7,222.3,299.5,221.5z"/>
			<path class="st8" d="M297.7,223.7c0.4,0.1,0.7,0,1-0.1c0.6-0.3,0.8-0.9,0.8-1.6c-0.4,0-0.9,0.1-1.2,0.4
				C298,222.7,297.8,223.2,297.7,223.7z"/>
			<path class="st2" d="M297.7,223.7c0.4,0.1,0.7,0,1-0.1c0.6-0.3,0.8-0.9,0.8-1.6c-0.4,0-0.9,0.1-1.2,0.4
				C298,222.7,297.8,223.2,297.7,223.7z"/>
			<path class="st15" d="M300.7,213.5c0.1,0.6-0.4,1.2-1,1.2s-1.2-0.4-1.2-1s0.4-1.2,1-1.2S300.7,212.9,300.7,213.5z"/>
			<path class="st15" d="M291.3,214.1c0.1,0.6-0.4,1.2-1,1.2s-1.2-0.4-1.2-1s0.4-1.2,1-1.2S291.2,213.5,291.3,214.1z"/>
			<path class="st15" d="M289.8,209.8c-0.8,0.7-1.5,1.3-2.3,2c-0.3-0.6-0.1-1.4,0.3-1.8C288.2,209.5,289.2,209.5,289.8,209.8z"/>
			<path class="st15" d="M299.3,208.7c0.9,0.5,1.8,1,2.6,1.5c0.2-0.6-0.1-1.4-0.7-1.7C300.8,208.1,299.8,208.3,299.3,208.7z"/>
		</g>
		<g>
			<path class="st8" d="M320.1,235.1c-1.1,11.2,2.8,16.7,13,36.1c0,0-2.4,14.3-6.6,22.4c-4.2,1.7-6.3,4.6-8.7,5.8
				c-0.4,0.2-0.6,0.7-0.3,1.1c1,1.5,3.6,0.4,5.9-1c-3,4.9-3.9,5.7-5.4,7.2c-1.5,1.5-0.5,4,3.6,4c4.1,0,6.5-3.2,7.2-4.3
				c0.8-1.1,5.9-11.4,5.9-11.4l9.3-18.7c1.3-2.6,1.4-5.7,0.3-8.4l-10.7-25.1c-2-4.7-6.6-7.7-11.6-7.7L320.1,235.1L320.1,235.1z"/>
			<path class="st9" d="M320.1,235.1c-1.1,11.2,2.8,16.7,13,36.1c0,0-2.4,14.3-6.6,22.4c-4.2,1.7-6.3,4.6-8.7,5.8
				c-0.4,0.2-0.6,0.7-0.3,1.1c1,1.5,3.6,0.4,5.9-1c-3,4.9-3.9,5.7-5.4,7.2c-1.5,1.5-0.5,4,3.6,4c4.1,0,6.5-3.2,7.2-4.3
				c0.8-1.1,5.9-11.4,5.9-11.4l9.3-18.7c1.3-2.6,1.4-5.7,0.3-8.4l-10.7-25.1c-2-4.7-6.6-7.7-11.6-7.7L320.1,235.1L320.1,235.1z"/>
		</g>
		<path class="st0" d="M330.2,283.6c-15.1-10.5-22.7-37.6-15.4-49.4c0,0,3.4-0.4,5.6,0.8c-7.9,15.3,2.3,35.1,9.4,43.9L330.2,283.6z"
			/>
	</g>
</g>
<g id="Character_1">
	<g>
		<g>
			<g>
				<path class="st4" d="M226.4,228.6l-2.4,0.8l-1.5-0.4l0.7,21.1l4.6,2.6c0.1,0.1,0.1,0.1,0.2,0.1c0.4,0.1,0.9-0.1,1.1-0.4
					s0.3-0.8,0.4-1.2C230.6,243.6,229.6,235.6,226.4,228.6z"/>
				<path class="st2" d="M226.4,228.6l-2.4,0.8l-1.5-0.4l0.7,21.1l4.6,2.6c0.1,0.1,0.1,0.1,0.2,0.1c0.4,0.1,0.9-0.1,1.1-0.4
					s0.3-0.8,0.4-1.2C230.6,243.6,229.6,235.6,226.4,228.6z"/>
				<path class="st4" d="M226.4,228.6c3.2,7,4.3,14.9,3.1,22.5c-0.1,0.4-0.1,0.9-0.4,1.2c-0.2,0.4-0.7,0.6-1.1,0.4
					c-0.3-0.1-0.5-0.4-0.6-0.8c-0.1-0.3,0-0.7,0-1c1-7.2-0.2-15.1-3.5-21.6L226.4,228.6z"/>
				<path class="st20" d="M226.4,228.6c3.2,7,4.3,14.9,3.1,22.5c-0.1,0.4-0.1,0.9-0.4,1.2c-0.2,0.4-0.7,0.6-1.1,0.4
					c-0.3-0.1-0.5-0.4-0.6-0.8c-0.1-0.3,0-0.7,0-1c1-7.2-0.2-15.1-3.5-21.6L226.4,228.6z"/>
				<polygon class="st4" points="210.3,294.7 210.3,294.7 210.2,294.7 				"/>
				<path class="st4" d="M223.9,229.4l-18-5l-12.3-0.8c0,0-3.9,67.2,0,68.6c3.7,1.3,8.7,3.4,15.4,2.7c0.4,0,0.8,0,1.2-0.1h0
					c0.4-0.1,0.8-0.2,1.2-0.4c3.8-1.8,8.8-4.5,11.6-7.1C226.2,268.1,226.5,248.5,223.9,229.4z"/>
				<path class="st20" d="M223.9,229.4l-18-5l-12.3-0.8c0,0-3.9,67.2,0,68.6c3.7,1.3,8.7,3.4,15.4,2.7c0.4,0,0.8,0,1.2-0.1h0
					c0.4-0.1,0.8-0.2,1.2-0.4c3.8-1.8,8.8-4.5,11.6-7.1C226.2,268.1,226.5,248.5,223.9,229.4z"/>
				<g>
					<path class="st4" d="M226.6,264.1l-13.7,3.1l-5.3,1.2V282c0,1.4,0.8,2.7,2,3.5l2,1.2c0.7,0.4,1.4,0.6,2.2,0.5
						c0.6,0,1.2-0.2,1.8-0.5l8.4-4.8c1.7-1,2.9-2.8,3-4.8C227.3,271.4,226.6,264.1,226.6,264.1z"/>
					<path class="st12" d="M212.9,267.2l-5.3,1.2v13.6c0,1.4,0.8,2.7,2,3.5l2,1.2c0.7,0.4,1.4,0.6,2.2,0.5
						C211.5,287.1,212.7,279.3,212.9,267.2z"/>
					<g>
						<path class="st4" d="M207.6,268.4l12.9-6.8c4.2-2,6.4,0.7,6.4,2.6c0,1.9-2.1,9.1-4.9,12.2c-2,2.2-6.2-2.7-8.4-5.5
							c-0.9-1.1-2.1-1.9-3.6-2.1L207.6,268.4z"/>
						<path class="st1" d="M207.6,268.4l12.9-6.8c4.2-2,6.4,0.7,6.4,2.6c0,1.9-2.1,9.1-4.9,12.2c-2,2.2-6.2-2.7-8.4-5.5
							c-0.9-1.1-2.1-1.9-3.6-2.1L207.6,268.4z"/>
						<g>
							<path class="st4" d="M221.2,271.4c0.6-0.4,1.2-0.1,1.2,0.7c0,0.7-0.5,1.6-1.2,2c-0.6,0.4-1.2,0.1-1.2-0.7
								C220,272.7,220.5,271.8,221.2,271.4z"/>
						</g>
					</g>
				</g>
				<path class="st12" d="M203.8,290.8c-7.3-24.8,2.2-66.5,2.2-66.5l-12.3-0.8c0,0-3.9,67.2,0,68.6c3.7,1.3,8.7,3.4,15.4,2.7
					C206.7,294.8,204.5,293.3,203.8,290.8z"/>
			</g>
			<g>
				<path class="st4" d="M216.5,227.6c0-5.1,3.6-11.4,8.1-14c1.6-0.9,3-1.2,4.3-1.1l0-0.1c-9.7-0.3-38.9-7.8-47.9-14.7v0
					c-1.5-1.1-3.7-1.1-6.1,0.3c-4.5,2.6-8.1,8.8-8.1,14c0,2.9,1.2,4.9,3.1,5.5v0c1.9,0.8,43.8,13.7,49.5,15.4l0,0
					C217.6,232.3,216.5,230.4,216.5,227.6z"/>
				<path class="st10" d="M228.8,212.6c-1.2-0.2-2.7,0.1-4.3,1.1c-4.5,2.6-8.1,8.8-8.1,14c0,2.8,1.1,4.7,2.8,5.4
					c1.4,0.6,3.3,0.4,5.3-0.8c4.5-2.6,8.1-8.8,8.1-14C232.6,214.9,231.1,212.9,228.8,212.6z"/>
			</g>
		</g>
		<g>
			<path class="st21" d="M184.3,350c5.8,6.7,25.8,23.8,25.8,26.3c6.9,0.8,8.6-4.4,8.6-4.4l-4-6.3c-2.4-3.7-4.5-7.5-6.3-11.5
				l-0.1-0.3c-2.7-5.9-6-11.4-9.8-16.7l0,0L184.3,350z"/>
			<g>
				<path class="st16" d="M222.3,379c-0.4,1.1-1,2.1-1.4,3.2c-1.2,3-1.3,6-2.4,9c-1.1,3-3.4,5.5-6.3,7c-2.6,1.3-6.4,2.1-9.4,1.7
					c0.4,0.5,0.7,1,1.2,1.6c3.1,0.8,6.5,0.4,9.3-1c2.8-1.5,5.1-4,6.3-7c1.2-3,1.3-6,2.4-9c0.4-1.1,1-2.1,1.4-3.2s0.6-2.3,0.4-3.5
					c0,0-0.4-0.6-1.1-1.5C222.8,377.2,222.7,378.2,222.3,379z"/>
				<g>
					<path class="st10" d="M218.9,370.3c-0.3-0.6-1.5-0.3-1.5-0.3l0.5,0.8c0,0-0.8,0.8-2.3,1.5c-0.6,0.3-1.1,0.8-1.2,1.4l-0.1,0.4
						c-0.1,0.2-0.1,0.4-0.3,0.5c-0.1,0-0.3-0.1-0.3-0.2c-0.1-0.1-0.1-0.2-0.1-0.4c-0.1-0.3-0.2-0.6-0.3-0.9c-0.2-0.5-0.6-0.9-1.1-1
						c-1.4-0.2-2.8,0.1-4,0.7c-0.4,0.2-0.5,0.7-0.4,1.1c1.7,4.2-1.4,14.7-3.4,16.5c-0.2,0.1-0.3,0.3-0.4,0.4
						c3.8-1.8,9.4-2.7,13.4,2.9c0.5-0.8,0.9-1.6,1.3-2.4c1.2-3,1.3-6,2.4-9c0.4-1.1,1-2.1,1.4-3.2c0.3-0.9,0.5-1.8,0.4-2.7
						C221.7,374.8,220.1,372.5,218.9,370.3z"/>
					<path class="st17" d="M203.9,390.9c-2.6,2.5-3.7,5.2-1,9.1c3,0.5,6.8-0.3,9.4-1.7c2-1,3.8-2.6,5-4.5
						C213.2,388.1,207.6,389.1,203.9,390.9z"/>
				</g>
			</g>
			<path class="st21" d="M161.7,350.6l-4.2,50.2c2.8,1.9,8.9,0.8,8.9,0.8c2.5-15.8,12.2-26.2,14.9-48.3L161.7,350.6z"/>
			<g>
				<path class="st16" d="M165.2,409.5c-1,0.7-2,1.2-3,1.9c-2.7,1.8-4.5,4.2-7.1,6c-2.6,1.8-6,2.6-9.1,2.2c-2.9-0.4-6.5-1.9-8.7-4
					c0,0.6,0,1.3,0.1,2c2.1,2.4,5.1,4,8.3,4.5s6.5-0.4,9.1-2.2c2.7-1.8,4.5-4.2,7.1-6c1-0.7,2-1.2,3-1.9s1.8-1.6,2.3-2.6
					c0,0,0-0.7-0.1-1.8C166.7,408.3,166,409,165.2,409.5z"/>
				<g>
					<path class="st10" d="M167.4,400.4c0.1-0.7-0.6-1-0.6-1l-0.1,0.8c0,0-1.4,0.2-3-0.1c-0.6-0.1-1.3,0-1.8,0.5l-0.3,0.3
						c-0.1,0.1-0.4,0.3-0.6,0.2c-0.1-0.1-0.2-0.2-0.2-0.3c0-0.1,0.1-0.3,0.1-0.4c0.1-0.3,0.2-0.6,0.3-0.9c0.2-0.5,0-1.1-0.4-1.5
						c-1-1-2.4-1.6-3.8-1.7c-0.4,0-0.8,0.3-0.9,0.7c-1,4.4-9.6,11.3-12.2,11.6c-0.2,0-0.4,0-0.6,0.1c4.1,0.7,9.2,3.1,9.4,10
						c0.9-0.3,1.7-0.8,2.4-1.3c2.7-1.8,4.5-4.2,7.1-6c1-0.7,2-1.2,3-1.9c0.8-0.5,1.4-1.2,1.9-2C167.1,405.7,167.1,402.9,167.4,400.4
						z"/>
					<path class="st17" d="M143.3,408.7c-3.6,0.6-6,2.2-6,6.9c2.2,2.1,5.8,3.6,8.7,4c2.3,0.3,4.6,0,6.7-0.9
						C152.5,411.8,147.4,409.3,143.3,408.7z"/>
				</g>
			</g>
			<path class="st4" d="M157.1,284.2c-1,19.8,2.1,37.6,5.8,43.9c-2.3,10.4-2.7,17.3-2.7,23.5c9.7,6.4,22.9,3.3,22.9,3.3l0.6-4.2
				c9-2.3,14.6-11.6,15.4-14l-7.4-10.4c0,0,5.6-17,6.1-20.8l-0.2-1.1c2.1-7.9,2.6-15.9,1.6-20.3L157.1,284.2z"/>
			<path class="st12" d="M164.2,323c2.6-10.7,6.8-23.6,6.8-23.6c-3.5-1.4-7.3-5.3-7.6-6.6c0,3.6,2.9,7,4.1,7.9
				C165.4,310,164.2,323,164.2,323z"/>
			<path class="st12" d="M183.7,350.6l6.8-22.5l-1.4-0.5C186.7,331.8,184.2,345.7,183.7,350.6z"/>
			<path class="st10" d="M182.5,303.6c-0.4,0-0.8,0.2-0.9,0.6c-1,3.4-5,17.9-6.3,22.6c-0.2,0.9,0.2,1.8,1.1,2.1
				c5.2,1.7,10.9,1.2,12.5,1c0.3,0,0.5-0.1,0.8-0.3l0.2-0.1c0.4-0.2,0.6-0.5,0.8-0.9l1-2.4c0,0,5.6-17,6.1-20.8l-0.2-1.1
				C194.3,304.7,185.2,304,182.5,303.6z"/>
		</g>
		<g>
			<path class="st21" d="M171.9,221.9l-2.3-1.3c-4.5-2.5-10.1-1.8-13.9,1.7l-19.3,17.9c0,0-7.3-13.3-8.6-17.7
				c-0.4-1.4,0.4-2.9,0.8-4.3s0.8-2.9,0.5-4.3c-0.4-1.8-0.1-3.8,0.4-5.6c0.2-0.7-0.3-1.3-1-1.3c-0.1,0-0.1,0-0.2,0
				c-0.5,0-1,0.2-1.4,0.6c-0.4,0.4-0.6,0.9-0.7,1.4c-0.4,1.3-0.7,2.6-0.8,3.9c-1.1-2.5-1.7-5.3-1.6-8c0.1-1.1,0.2-2.1-0.1-3.2
				c-0.2-1-1-2-2-2.2c-0.5,0.7-0.9,1.6-1.1,2.5c-0.6-0.2-1.4-0.3-1.9,0.1s-0.9,0.9-1,1.5c-1.6,0.1-2.9,1.5-3.5,2.9
				c-0.6,1.4-0.7,3-0.6,4.6c0.3,5.1,2.2,10,5.2,14.1c2.5,9.5,4.7,20.2,8.3,28.5c1.7,4.1,6.8,5.5,10.4,3.1c13.8-9.1,25-18.6,25-18.6
				L171.9,221.9z"/>
			<path class="st22" d="M171.9,221.9l-2.3-1.3c-4.5-2.5-10.1-1.8-13.9,1.7l-15.2,14.1c1.5,7.7,8.8,13.1,8.8,13.1l13.1-11.4
				L171.9,221.9z"/>
			<path class="st12" d="M138.4,249.1c0.1-3.8-0.7-6-1.9-8.9l1-0.9C138.4,240.5,140.2,243.7,138.4,249.1z"/>
			<path class="st12" d="M123.5,222.9c-1-1.1-1.6-2.6-1.5-4.1s0.7-3,1.7-4c-1.5,0.6-2.7,2.2-2.7,3.8
				C120.9,220.2,122,222.1,123.5,222.9z"/>
		</g>
		<g>
			<path class="st16" d="M171.6,219.1l-3.9,0.4c-2.9,0.3-5.5,1.9-7.1,4.4c-4,6.2-5.9,15.8-4.8,26.1c1.4,12.9,0.5,35.2,0.5,35.2
				c17.1,12.5,40.3,1.4,43-1.3l-2.5-22.4c-0.1-1.8,0.2-3.6,0.9-5.2c1.6-3.7,4.5-11.1,4.9-16.8c0.5-8-3.1-14.7-3.1-14.7l-15-5.6
				L171.6,219.1L171.6,219.1z"/>
			<path class="st2" d="M197.6,256.3c1.4-3.3,3.8-9.4,4.6-14.7c-1.6,0.9-3.3,1.9-3.9,3.5c-2.1,5.1-2.6,10.8-1.6,16.1
				C196.6,259.5,196.9,257.8,197.6,256.3z"/>
		</g>
		<g>
			<path class="st21" d="M201.1,258.1l3.9,14.5l-15.3,12.9c-1.1,0.9-2.5,1.4-3.9,1.4c-1.6,0-3.2-0.1-4.7,0.3
				c-1.2,0.3-2.4,0.7-3.6,0.9c-0.8,0.2-1.7,0.3-2.6,0.3c-0.8,0-1.3,0.8-1,1.5c0.1,0.3,0.3,0.5,0.5,0.7c0.6,0.5,1.4,0.8,2.2,0.9
				c1.3,0.2,2.6,0.1,3.8-0.2c-1.1,1.4-3,2.4-4.7,2.9s-3.5,0.9-5.2,1.5c-0.6,0.2-1.3,0.5-1.7,1.1c-0.4,0.5-0.4,1.4,0.2,1.8
				c0.7,0.5,1.7-0.2,2.5,0.1c-0.1,0.5-0.1,0.9,0,1.4c0.1,0.5,0.4,0.9,0.9,1.1c0.4,0.3,1,0.3,1.4,0c0.7,1.1,1.9,1.9,3.2,2.2
				s2.7,0.2,4,0c5.5-1,8.9-5.8,13.2-9.3c0.6-0.5,15.7-8.9,23.4-13.2c2.6-1.5,3.9-4.5,3.2-7.4l-4.9-19.2L201.1,258.1z"/>
			<path class="st12" d="M214.4,272.3c-1.7-0.8-6.9-1.4-9.4,0.3l-0.4-1.5C206.2,270.3,210.5,268.9,214.4,272.3z"/>
			<path class="st22" d="M199.2,224.7l2.2,0.6c4.5,1.3,8,4.7,9.5,9.1l6.9,20.4c-6.2,6.6-17.5,4.5-17.5,4.5l-2.2-10.4
				C190.3,235.3,197.5,226.9,199.2,224.7z"/>
		</g>
		<g>
			<g>
				<path class="st15" d="M198.5,278c-13.5-14.5-15.4-44.7-5.1-55.5c0,0,3.6,0.4,5.7,2.1c-11.8,14.3-5.5,37.4,0,48.3L198.5,278z"/>
				<path class="st15" d="M156.3,260.9c-0.1-16.7,1.6-34,15.2-41.8C164.1,216.2,149.1,226.2,156.3,260.9z"/>
			</g>
		</g>
		<g>
			<g>
				<path class="st23" d="M186.3,170.8c-6.6-3.4-13.5-3.3-15.4,0.4l-3,5.1l6.4,4.2c1.4,1.3,3.1,2.5,5,3.5c0.5,0.3,1,0.5,1.4,0.7
					l11.1,7.3l2.9-8.4C196.6,180.1,192.9,174.3,186.3,170.8z"/>
				<path class="st4" d="M186.3,170.8c-6.6-3.4-13.5-3.3-15.4,0.4l-3,5.1l6.4,4.2c1.4,1.3,3.1,2.5,5,3.5c0.5,0.3,1,0.5,1.4,0.7
					l11.1,7.3l2.9-8.4C196.6,180.1,192.9,174.3,186.3,170.8z"/>
			</g>
			<path class="st10" d="M200.1,200.9c-3.7,7.1-17,7.5-29.6,0.8c-12.6-6.6-19.8-17.7-16.1-24.8s17-7.5,29.6-0.8
				C196.7,182.6,203.9,193.8,200.1,200.9z"/>
		</g>
		<g>
			<g>
				<path class="st21" d="M184.4,209.2v10.2c0,1.4-0.5,2.7-1.6,3.6c-2.7,2.4-6.3,3.6-9.8,3.4c-0.7,0-1.5-0.2-2-0.6
					c-0.8-0.6-0.9-1.8-0.6-2.8c0.1-0.5,0.4-0.9,0.6-1.4c0.6-0.9,0.9-1.9,0.9-2.9v-9.5L184.4,209.2L184.4,209.2z"/>
				<path class="st24" d="M183.7,209.3l-11.8-0.1v8.7c2.7-0.5,5.2-1.2,7.4-2.7C181.4,213.8,182.9,211.6,183.7,209.3z"/>
			</g>
			<g>
				<path class="st15" d="M160.9,191.9c-1.7,0.1-3.3-0.5-4.6-1.5c-0.8-0.6-1.4-1.3-1.8-2.1c-0.4-0.7,0.3-1.6,1.1-1.4
					c0.9,0.2,1.9,0.2,2.7,0c-2.1-2.7-3-6.3-2.6-9.7c0.1-0.8,1-1.3,1.7-0.9c3.8,1.8,8,2.8,12.2,2.5c2.2-0.2,4.4-0.6,6.7-0.8
					s4.6,0,6.6,1s3.6,3,3.6,5.3c0.5-0.8,1.3-1.2,2.2-1.3s1.9,0.2,2.6,0.8c-1.3,0.7-2.6,1.4-3.9,2.1c1.3-0.5,3,0.6,3.6,1.8
					c0.7,1.2,0.7,2.7,0.7,4.1c0,1.9,0.1,3.8-0.3,5.6s-0.9,3.7-2.1,5.1c-1,1.2-2.4,2.1-3.9,2.6c-2,0.6-4.2,0.4-6.3-0.2
					s-3.9-1.7-5.7-2.8C169,199.2,164.7,195.5,160.9,191.9z"/>
				<path class="st21" d="M160.6,188.2c-1.3,7.7-0.4,15.7,2.5,23c0.7,1.7,1.6,3.4,3.1,4.3c1.6,0.9,3.7,0.8,5.6,0.5
					c3-0.5,6.1-1.1,8.8-2.5c2.7-1.4,5.1-3.7,6.1-6.6c2,0.5,4.1-0.4,5.3-2.1s1.7-3.8,1.7-5.8c0-1.3-0.2-2.9-1.4-3.4
					c-1.1-0.5-2.4,0.1-3.4,0.8c-1.6,1.3-2.7,3-3.3,4.9c-0.9-3.2-2.2-6.3-3.1-9.5c-0.3-1.3-0.8-2.6-1.9-3.3c-1.4-0.9-3.1-0.4-4.7,0
					C171.2,189.6,165.2,189.6,160.6,188.2z"/>
				<polygon class="st8" points="169.9,197.9 166.2,204.3 170.6,205.1 				"/>
				<path class="st8" d="M175,207.3c-1.1,0.6-2.3,1.1-3.4,1.6c0.5,0.8,1.7,1.1,2.6,0.7C175,209.3,175.2,208.2,175,207.3z"/>
				<path class="st9" d="M175,207.3c-1.1,0.6-2.3,1.1-3.4,1.6c0.5,0.8,1.7,1.1,2.6,0.7C175,209.3,175.2,208.2,175,207.3z"/>
				<path class="st8" d="M173,209.8c0.4,0.1,0.8,0.1,1.2-0.1c0.7-0.3,0.9-1.1,0.9-1.8c-0.5,0-1,0.2-1.3,0.5
					C173.3,208.7,173,209.2,173,209.8z"/>
				<path class="st15" d="M176.4,198.2c0.1,0.7-0.4,1.3-1.1,1.4c-0.7,0.1-1.3-0.4-1.4-1.1c-0.1-0.7,0.4-1.3,1.1-1.4
					C175.7,197,176.3,197.5,176.4,198.2z"/>
				<path class="st15" d="M165.6,198.9c0.1,0.7-0.4,1.3-1.1,1.4c-0.7,0.1-1.3-0.4-1.4-1.1c-0.1-0.7,0.4-1.3,1.1-1.4
					S165.6,198.1,165.6,198.9z"/>
				<path class="st15" d="M163.9,193.9c-0.9,0.8-1.8,1.5-2.6,2.3c-0.4-0.6-0.2-1.5,0.4-2.1C162.1,193.6,163.2,193.6,163.9,193.9z"/>
				<path class="st15" d="M174.8,192.6c1,0.6,2,1.1,3,1.7c0.2-0.7-0.1-1.6-0.8-1.9C176.5,191.9,175.4,192.2,174.8,192.6z"/>
			</g>
		</g>
	</g>
</g>
</svg>
